<?xml version="1.0" encoding="UTF-8"?>
<svg version="1.1" xmlns="http://www.w3.org/2000/svg" width="498" height="446">
<path d="M0 0 C12.15212047 -0.20859145 24.30381474 -0.36847543 36.45736122 -0.46630955 C42.10096112 -0.51326769 47.7433358 -0.57694922 53.38623047 -0.67895508 C58.83281852 -0.77679539 64.27822887 -0.83056798 69.7256279 -0.85389519 C71.80300822 -0.87051661 73.8803245 -0.90297672 75.95720291 -0.95157051 C92.28030393 -1.31827687 92.28030393 -1.31827687 96.57182312 1.97149658 C98.13866126 4.29399448 99.09491258 6.36174771 100 9 C101.17375292 10.63495729 102.35937783 12.26153222 103.5625 13.875 C109.02414986 21.32744208 114.1803987 28.98890926 119.38037109 36.625 C121.78582617 40.15232393 124.20445495 43.67052102 126.625 47.1875 C127.06932373 47.83332031 127.51364746 48.47914062 127.97143555 49.14453125 C128.86371341 50.44144486 129.75604718 51.73832002 130.6484375 53.03515625 C132.0372463 55.05414708 133.42501567 57.07384878 134.8125 59.09375 C139.03199272 65.23591077 143.25557337 71.37503559 147.5 77.5 C150.75833512 82.2026326 154.00824096 86.91092517 157.25 91.625 C157.70415283 92.2852417 158.15830566 92.9454834 158.6262207 93.62573242 C161.19508411 97.36351547 163.75576221 101.10671613 166.30859375 104.85546875 C173.12563837 114.88875698 173.12563837 114.88875698 180.1875 124.75 C185.75144063 132.30524569 190.83569066 140.1914907 195.9921875 148.02734375 C198.98371004 152.55186643 202.01360971 157.03764711 205.1640625 161.453125 C205.98994873 162.61158936 205.98994873 162.61158936 206.83251953 163.79345703 C207.93061969 165.32886794 209.03305743 166.86118738 210.14013672 168.39013672 C210.6404541 169.08896973 211.14077148 169.78780273 211.65625 170.5078125 C212.10806641 171.13316895 212.55988281 171.75852539 213.02539062 172.40283203 C214 174 214 174 214 176 C218.03163469 174.65612177 219.43547733 171.98610853 221.75 168.625 C222.1939209 167.99231201 222.6378418 167.35962402 223.09521484 166.70776367 C226.30157146 162.10464157 229.32240546 157.39909172 232.29296875 152.640625 C234.7005152 148.9163655 237.33716301 145.37641841 239.96875 141.80859375 C242.73984583 137.97702086 245.33406773 134.03779423 247.94140625 130.09375 C253.60385687 121.58395704 259.51938168 113.25533424 265.4777832 104.9519043 C268.208871 101.13585649 270.85420108 97.27756665 273.4296875 93.35546875 C276.20243331 89.19635003 279.08478711 85.11191066 281.94921875 81.015625 C283.73489825 78.3898258 285.38024645 75.7292804 287 73 C285.2292662 73.01332367 285.2292662 73.01332367 283.42276001 73.0269165 C272.2710912 73.10817605 261.11948285 73.16804873 249.96758461 73.20724869 C244.23493691 73.22807964 238.50252916 73.25631532 232.77001953 73.30175781 C227.23273755 73.34537556 221.69568568 73.36917087 216.15824509 73.37950897 C214.05082963 73.38687177 211.94342606 73.40124938 209.83610916 73.42292023 C206.87305212 73.45216578 203.91093318 73.45594717 200.94775391 73.45410156 C200.08603577 73.46848267 199.22431763 73.48286377 198.33648682 73.49768066 C187.16455621 73.42290256 175.86320302 67.84047742 167.984375 59.9921875 C162.91302261 53.87673315 158.59584225 47.11124628 154.14477539 40.53662109 C149.72046287 34.0045505 145.14997247 27.59194207 140.48950195 21.2265625 C137.33982855 16.91141362 134.32029861 12.53386035 131.39233398 8.06494141 C130.42246973 6.62655601 129.39420369 5.22657915 128.32446289 3.86083984 C127 2 127 2 127 0 C227.65 0 328.3 0 432 0 C432 0.99 432 1.98 432 3 C431.34 3 430.68 3 430 3 C429.76925781 3.51046875 429.53851563 4.0209375 429.30078125 4.546875 C427.49906986 7.94469708 425.34305585 11.06834592 423.1875 14.25 C420.36717388 18.43041524 417.58852478 22.60774534 415 26.9375 C414.34 27.948125 413.68 28.95875 413 30 C412.34 30 411.68 30 411 30 C410.62681641 31.05767578 410.62681641 31.05767578 410.24609375 32.13671875 C408.84395417 35.35856298 407.09672392 37.94692959 405.0625 40.8125 C404.24952606 41.9658119 403.43704851 43.11947382 402.625 44.2734375 C402.19703125 44.87897461 401.7690625 45.48451172 401.328125 46.10839844 C399.04243899 49.36382034 396.80686162 52.6535234 394.5625 55.9375 C390.51586977 61.84757847 386.39425684 67.69793675 382.17211914 73.48413086 C380.18595363 76.22897284 378.39015536 78.90408644 377 82 C376.34 82 375.68 82 375 82 C374.76410156 82.68707031 374.52820313 83.37414062 374.28515625 84.08203125 C372.7385668 87.59358844 370.6617416 90.58480595 368.4375 93.6875 C365.5019847 97.70970455 365.5019847 97.70970455 363 102 C362.34 102 361.68 102 361 102 C360.76410156 102.67933594 360.52820313 103.35867187 360.28515625 104.05859375 C358.71018765 107.66330912 356.63703612 110.81971718 354.4375 114.0625 C353.77802368 115.04452393 353.77802368 115.04452393 353.10522461 116.04638672 C349.54357395 121.3043349 345.79038525 126.38596176 341.91015625 131.4140625 C340.09370233 133.87314736 338.57069082 136.37960917 337 139 C335.20395552 141.63067911 333.35042609 144.21989118 331.5 146.8125 C327.23108172 152.82716559 322.99437131 158.86193797 318.8125 164.9375 C318.34328125 165.61723877 317.8740625 166.29697754 317.390625 166.99731445 C315.03092848 170.39923005 315.03092848 170.39923005 313 174 C312.34 174 311.68 174 311 174 C310.62681641 175.06734375 310.62681641 175.06734375 310.24609375 176.15625 C308.86273526 179.31325621 307.13626017 181.75043344 305.0625 184.5 C302.49545984 187.9163226 300.18729897 191.33273755 298 195 C296.30336727 197.56412524 294.55933228 200.0948874 292.8125 202.625 C292.32346191 203.33503174 291.83442383 204.04506348 291.33056641 204.77661133 C287.94097163 209.68114291 284.46707285 214.51649156 280.94140625 219.32421875 C276.06942045 226.03912876 271.41961731 232.913067 266.75 239.76953125 C266.18176514 240.60291016 265.61353027 241.43628906 265.02807617 242.29492188 C263.91446961 243.92912009 262.80255226 245.56447117 261.69262695 247.20117188 C259.13693549 250.95273257 256.53916284 254.646701 253.79296875 258.26171875 C251.65266675 261.08263052 249.80194654 263.94908522 248 267 C246.16301147 269.6936539 244.26774339 272.34533584 242.375 275 C241.29251208 276.52571776 240.21048481 278.05176245 239.12890625 279.578125 C238.59668457 280.32900391 238.06446289 281.07988281 237.51611328 281.85351562 C233.97000114 286.87403382 230.48987263 291.94031012 227 297 C225.31341978 299.43813714 223.62546794 301.87532348 221.9375 304.3125 C221.17575699 305.41274362 220.41403586 306.51300239 219.65234375 307.61328125 C219.10707031 308.40089844 218.56179687 309.18851562 218 310 C216.29296875 309.890625 216.29296875 309.890625 214 309 C212.28077209 306.94524056 210.79721495 304.96331423 209.3125 302.75 C208.87679687 302.11956787 208.44109375 301.48913574 207.9921875 300.83959961 C207.08993632 299.53215266 206.19234056 298.22148141 205.29931641 296.90771484 C204.11216173 295.1646809 202.91038487 293.43343028 201.69921875 291.70703125 C197.69556317 285.98244379 193.79368248 280.19929694 189.9375 274.375 C186.50717298 269.19656946 182.95349727 264.14414671 179.265625 259.14453125 C176.24950592 254.95836598 173.34397839 250.7002528 170.4375 246.4375 C169.8688623 245.60355713 169.30022461 244.76961426 168.71435547 243.91040039 C167.62107995 242.30681279 166.52781762 240.7032162 165.43457031 239.09960938 C161.61809642 233.51389197 157.71481581 227.99285082 153.77026367 222.49707031 C148.63881134 215.33979902 143.55761657 208.14710165 138.5 200.9375 C137.79302979 199.93759033 137.08605957 198.93768066 136.35766602 197.9074707 C135.69307373 196.95702881 135.02848145 196.00658691 134.34375 195.02734375 C133.74755859 194.17906006 133.15136719 193.33077637 132.53710938 192.45678711 C131.02067424 190.03304398 129.97100123 187.68314012 129 185 C128.34 185 127.68 185 127 185 C126.505 184.071875 126.01 183.14375 125.5 182.1875 C123.08405943 177.96170848 120.22043037 174.12286952 117.33203125 170.2109375 C114.69536247 166.58054933 112.15502357 162.8925573 109.625 159.1875 C103.08448351 149.62557397 96.51053177 140.05481804 89.3515625 130.94140625 C87.76063855 128.65617733 86.43704881 126.24650932 85.07128906 123.82250977 C83.40401632 120.98609431 81.49117052 118.3512119 79.5625 115.6875 C79.13420898 115.09267822 78.70591797 114.49785645 78.26464844 113.88500977 C75.84049661 110.52221184 73.39669703 107.17396632 70.94921875 103.828125 C64.38829083 94.83580032 58.05744006 85.72730841 51.93261719 76.43139648 C51.11905762 75.19691772 51.11905762 75.19691772 50.2890625 73.9375 C49.75829102 73.13183594 49.22751953 72.32617188 48.68066406 71.49609375 C46.29550313 67.9536932 43.8028242 64.49005167 41.29833984 61.03125 C40 59 40 59 40 57 C39.34 57 38.68 57 38 57 C37.505 56.071875 37.01 55.14375 36.5 54.1875 C34.08729809 49.96737331 31.22811 46.13336355 28.34375 42.2265625 C25.14666357 37.82524018 22.08064879 33.33876596 19.00878906 28.84960938 C15.89239175 24.29571128 12.74235976 19.76770976 9.5625 15.2578125 C7.39246797 12.12211622 5.32058185 8.9244139 3.26171875 5.71484375 C2.09650971 3.85850478 2.09650971 3.85850478 0 3 C0 2.01 0 1.02 0 0 Z " fill="#6F3C85" transform="translate(29,55)"/>
<path d="M0 0 C12.15212047 -0.20859145 24.30381474 -0.36847543 36.45736122 -0.46630955 C42.10096112 -0.51326769 47.7433358 -0.57694922 53.38623047 -0.67895508 C58.83281852 -0.77679539 64.27822887 -0.83056798 69.7256279 -0.85389519 C71.80300822 -0.87051661 73.8803245 -0.90297672 75.95720291 -0.95157051 C92.28030393 -1.31827687 92.28030393 -1.31827687 96.57182312 1.97149658 C98.13866126 4.29399448 99.09491258 6.36174771 100 9 C101.17375292 10.63495729 102.35937783 12.26153222 103.5625 13.875 C109.02414986 21.32744208 114.1803987 28.98890926 119.38037109 36.625 C121.78582617 40.15232393 124.20445495 43.67052102 126.625 47.1875 C127.06932373 47.83332031 127.51364746 48.47914062 127.97143555 49.14453125 C128.86371341 50.44144486 129.75604718 51.73832002 130.6484375 53.03515625 C132.0372463 55.05414708 133.42501567 57.07384878 134.8125 59.09375 C139.03199272 65.23591077 143.25557337 71.37503559 147.5 77.5 C150.75833512 82.2026326 154.00824096 86.91092517 157.25 91.625 C157.70415283 92.2852417 158.15830566 92.9454834 158.6262207 93.62573242 C161.19508411 97.36351547 163.75576221 101.10671613 166.30859375 104.85546875 C173.12563837 114.88875698 173.12563837 114.88875698 180.1875 124.75 C185.75144063 132.30524569 190.83569066 140.1914907 195.9921875 148.02734375 C198.98371004 152.55186643 202.01360971 157.03764711 205.1640625 161.453125 C205.98994873 162.61158936 205.98994873 162.61158936 206.83251953 163.79345703 C207.93061969 165.32886794 209.03305743 166.86118738 210.14013672 168.39013672 C210.6404541 169.08896973 211.14077148 169.78780273 211.65625 170.5078125 C212.10806641 171.13316895 212.55988281 171.75852539 213.02539062 172.40283203 C214 174 214 174 214 176 C217.33537489 174.88820837 218.63707344 173.52588702 221 171 C220.74438677 173.3431213 220.40729228 175.67843403 220 178 C219.34 178.33 218.68 178.66 218 179 C218 219.92 218 260.84 218 303 C218.66 303 219.32 303 220 303 C220 302.34 220 301.68 220 301 C221.66666667 299.33333333 223.33333333 297.66666667 225 296 C226.03162801 294.35272302 227.02828931 292.683317 228 291 C229.13689786 289.14034108 230.28298202 287.28627156 231.4375 285.4375 C232.01371094 284.50808594 232.58992187 283.57867187 233.18359375 282.62109375 C234.93157462 280.09873856 236.82910384 278.15310193 239 276 C240.1706241 274.15734806 240.1706241 274.15734806 241.0625 272.3125 C243 269 243 269 246 268 C244.63672434 271.83635361 242.88547557 274.7558142 240.4375 278 C236.22210999 283.6763194 232.18749586 289.46080294 228.18066406 295.28564453 C226.10557755 298.29872507 224.02092345 301.30518116 221.9375 304.3125 C221.17574079 305.4127324 220.41401815 306.51299013 219.65234375 307.61328125 C219.10707031 308.40089844 218.56179687 309.18851562 218 310 C216.29296875 309.890625 216.29296875 309.890625 214 309 C212.28077209 306.94524056 210.79721495 304.96331423 209.3125 302.75 C208.87679687 302.11956787 208.44109375 301.48913574 207.9921875 300.83959961 C207.08993632 299.53215266 206.19234056 298.22148141 205.29931641 296.90771484 C204.11216173 295.1646809 202.91038487 293.43343028 201.69921875 291.70703125 C197.69556317 285.98244379 193.79368248 280.19929694 189.9375 274.375 C186.50717298 269.19656946 182.95349727 264.14414671 179.265625 259.14453125 C176.24950592 254.95836598 173.34397839 250.7002528 170.4375 246.4375 C169.8688623 245.60355713 169.30022461 244.76961426 168.71435547 243.91040039 C167.62107995 242.30681279 166.52781762 240.7032162 165.43457031 239.09960938 C161.61809642 233.51389197 157.71481581 227.99285082 153.77026367 222.49707031 C148.63881134 215.33979902 143.55761657 208.14710165 138.5 200.9375 C137.79302979 199.93759033 137.08605957 198.93768066 136.35766602 197.9074707 C135.69307373 196.95702881 135.02848145 196.00658691 134.34375 195.02734375 C133.74755859 194.17906006 133.15136719 193.33077637 132.53710938 192.45678711 C131.02067424 190.03304398 129.97100123 187.68314012 129 185 C128.34 185 127.68 185 127 185 C126.505 184.071875 126.01 183.14375 125.5 182.1875 C123.08405943 177.96170848 120.22043037 174.12286952 117.33203125 170.2109375 C114.69536247 166.58054933 112.15502357 162.8925573 109.625 159.1875 C103.08448351 149.62557397 96.51053177 140.05481804 89.3515625 130.94140625 C87.76063855 128.65617733 86.43704881 126.24650932 85.07128906 123.82250977 C83.40401632 120.98609431 81.49117052 118.3512119 79.5625 115.6875 C79.13420898 115.09267822 78.70591797 114.49785645 78.26464844 113.88500977 C75.84049661 110.52221184 73.39669703 107.17396632 70.94921875 103.828125 C64.38829083 94.83580032 58.05744006 85.72730841 51.93261719 76.43139648 C51.11905762 75.19691772 51.11905762 75.19691772 50.2890625 73.9375 C49.75829102 73.13183594 49.22751953 72.32617188 48.68066406 71.49609375 C46.29550313 67.9536932 43.8028242 64.49005167 41.29833984 61.03125 C40 59 40 59 40 57 C39.34 57 38.68 57 38 57 C37.505 56.071875 37.01 55.14375 36.5 54.1875 C34.08729809 49.96737331 31.22811 46.13336355 28.34375 42.2265625 C25.14666357 37.82524018 22.08064879 33.33876596 19.00878906 28.84960938 C15.89239175 24.29571128 12.74235976 19.76770976 9.5625 15.2578125 C7.39246797 12.12211622 5.32058185 8.9244139 3.26171875 5.71484375 C2.09650971 3.85850478 2.09650971 3.85850478 0 3 C0 2.01 0 1.02 0 0 Z " fill="#5E63AB" transform="translate(29,55)"/>
<path d="M0 0 C46.86 0 93.72 0 142 0 C142 0.99 142 1.98 142 3 C141.34 3 140.68 3 140 3 C139.76925781 3.51046875 139.53851563 4.0209375 139.30078125 4.546875 C137.49906986 7.94469708 135.34305585 11.06834592 133.1875 14.25 C130.36717388 18.43041524 127.58852478 22.60774534 125 26.9375 C124.34 27.948125 123.68 28.95875 123 30 C122.34 30 121.68 30 121 30 C120.62875 31.05380859 120.62875 31.05380859 120.25 32.12890625 C118.02058882 37.24958505 114.52944259 41.62232251 111.30273438 46.15478516 C109.96976485 48.04282557 108.66283897 49.9469626 107.359375 51.85546875 C106.48992531 53.11221583 105.62014215 54.36873227 104.75 55.625 C104.35039062 56.21659912 103.95078125 56.80819824 103.5390625 57.41772461 C101.04658442 60.97538631 98.72398192 62.85760769 95 65 C93.92863949 67.30144109 92.92010283 69.6340213 92 72 C91.01 72.495 91.01 72.495 90 73 C89.505 74.485 89.505 74.485 89 76 C88.443125 76.53625 87.88625 77.0725 87.3125 77.625 C82.99454753 82.05965389 79.66201909 87.4224362 77 93 C76.34 93 75.68 93 75 93 C74.731875 93.763125 74.46375 94.52625 74.1875 95.3125 C73 98 73 98 71.61328125 99.31640625 C68.80650604 102.24551065 67.31285383 106.00418068 65.5 109.6015625 C64 112 64 112 61 113 C60.95875 113.66 60.9175 114.32 60.875 115 C59.42529771 119.97040784 56.03456619 123.98504409 52.37890625 127.60546875 C50.76102267 129.24168529 49.9360222 130.91195048 49 133 C48.34 133 47.68 133 47 133 C46.79375 133.66 46.5875 134.32 46.375 135 C44.80078055 138.43466062 42.7654607 141.09741211 40.453125 144.06640625 C38.86159823 146.10181378 38.86159823 146.10181378 37.3125 148.9375 C36 151 36 151 33 152 C32.814375 153.1446875 32.814375 153.1446875 32.625 154.3125 C32 157 32 157 30 160 C29.34 160 28.68 160 28 160 C27.89872803 160.72920654 27.79745605 161.45841309 27.69311523 162.2097168 C26.92161829 165.31554229 25.80414361 167.08012014 23.91015625 169.64453125 C23.29076172 170.48564453 22.67136719 171.32675781 22.03320312 172.19335938 C21.05770508 173.48983398 21.05770508 173.48983398 20.0625 174.8125 C19.41603516 175.69615234 18.76957031 176.57980469 18.10351562 177.49023438 C14.52133222 182.3073969 14.52133222 182.3073969 13 184 C12.34 184 11.68 184 11 184 C10.8453125 184.804375 10.8453125 184.804375 10.6875 185.625 C9.20408928 190.74950977 6.65135545 195.12043483 3 199 C2.01 199 1.02 199 0 199 C-1.12275128 150.64107193 -1.35498555 102.30160062 -0.7734375 53.93359375 C-0.76384632 53.13557909 -0.75425514 52.33756443 -0.74437332 51.51536751 C-0.53428283 34.34302899 -0.25870699 17.17167617 0 0 Z " fill="#7A166F" transform="translate(319,55)"/>
<path d="M0 0 C12.15212047 -0.20859145 24.30381474 -0.36847543 36.45736122 -0.46630955 C42.10096112 -0.51326769 47.7433358 -0.57694922 53.38623047 -0.67895508 C58.83281852 -0.77679539 64.27822887 -0.83056798 69.7256279 -0.85389519 C71.80300822 -0.87051661 73.8803245 -0.90297672 75.95720291 -0.95157051 C92.28030393 -1.31827687 92.28030393 -1.31827687 96.57182312 1.97149658 C98.13866126 4.29399448 99.09491258 6.36174771 100 9 C101.17375292 10.63495729 102.35937783 12.26153222 103.5625 13.875 C107.94021481 19.84384577 112.10902527 25.9494053 116.26708984 32.07275391 C119.17445534 36.35140544 122.13161605 40.57533008 125.1875 44.75 C127.77291345 48.40110826 128.81911694 51.67009544 130 56 C132.35006646 60.13555239 134.89862957 63.92839634 138.3125 67.25 C141.84048311 70.90864915 141.12206197 76.27911369 141.11352539 81.08520508 C141.11367142 81.77843872 141.11381744 82.47167236 141.1139679 83.18591309 C141.11327451 85.46381829 141.10550915 87.74164043 141.09765625 90.01953125 C141.09579003 91.60422216 141.09436709 93.18891365 141.09336853 94.77360535 C141.08955943 98.9344951 141.07974292 103.09534968 141.06866455 107.25622559 C141.05841582 111.50609868 141.0538635 115.75597748 141.04882812 120.00585938 C141.03811916 128.33725569 141.02106211 136.66862346 141 145 C135.96519821 145.21761198 130.93016804 145.41435479 125.89379883 145.59204102 C124.18166471 145.65535743 122.46972917 145.72431031 120.75805664 145.79907227 C118.29344101 145.9057315 115.8288155 145.99190521 113.36328125 146.07421875 C112.22080681 146.1302552 112.22080681 146.1302552 111.05525208 146.18742371 C106.45813446 146.31663439 103.63050996 145.87679669 100 143 C98.56201172 141.45361328 98.56201172 141.45361328 97.4296875 139.8203125 C97.00816406 139.22089844 96.58664063 138.62148437 96.15234375 138.00390625 C95.73082031 137.38386719 95.30929688 136.76382813 94.875 136.125 C94.23111328 135.20654297 94.23111328 135.20654297 93.57421875 134.26953125 C91.77395913 131.68269666 90.05260753 129.08789788 88.43359375 126.3828125 C86.82825034 123.71453054 85.04161384 121.25140803 83.1875 118.75 C78.78704182 112.74276902 74.45651614 106.72584924 70.875 100.1875 C69.13764583 97.23399791 67.43517849 95.35662434 65 93 C63.99098256 91.33877708 62.99274274 89.67099959 62 88 C60.55570016 85.86330174 59.10110128 83.73933169 57.625 81.625 C57.22724365 81.05209229 56.8294873 80.47918457 56.41967773 79.88891602 C54.32936246 76.88368812 52.21444046 73.89882702 50.0625 70.9375 C48 68 48 68 46.9375 65.6875 C46.1125376 63.81474667 46.1125376 63.81474667 44 63.0625 C41.25013332 61.60163333 40.91166696 59.88694538 40 57 C39.34 57 38.68 57 38 57 C37.505 56.071875 37.01 55.14375 36.5 54.1875 C34.08729809 49.96737331 31.22811 46.13336355 28.34375 42.2265625 C25.14666357 37.82524018 22.08064879 33.33876596 19.00878906 28.84960938 C15.89239175 24.29571128 12.74235976 19.76770976 9.5625 15.2578125 C7.39246797 12.12211622 5.32058185 8.9244139 3.26171875 5.71484375 C2.09650971 3.85850478 2.09650971 3.85850478 0 3 C0 2.01 0 1.02 0 0 Z " fill="#36659F" transform="translate(29,55)"/>
<path d="M0 0 C0.33 0.66 0.66 1.32 1 2 C-0.04800781 3.44632812 -0.04800781 3.44632812 -1.1171875 4.921875 C-2.03660959 6.19780769 -2.95587205 7.47385541 -3.875 8.75 C-4.33519531 9.38421875 -4.79539062 10.0184375 -5.26953125 10.671875 C-7.43662041 13.68695557 -9.49857822 16.58297113 -11 20 C-11.66 20 -12.32 20 -13 20 C-13.23589844 20.68707031 -13.47179687 21.37414062 -13.71484375 22.08203125 C-15.2614332 25.59358844 -17.3382584 28.58480595 -19.5625 31.6875 C-22.4980153 35.70970455 -22.4980153 35.70970455 -25 40 C-25.66 40 -26.32 40 -27 40 C-27.23589844 40.67933594 -27.47179687 41.35867187 -27.71484375 42.05859375 C-29.28981235 45.66330912 -31.36296388 48.81971718 -33.5625 52.0625 C-34.00215088 52.71718262 -34.44180176 53.37186523 -34.89477539 54.04638672 C-38.45642605 59.3043349 -42.20961475 64.38596176 -46.08984375 69.4140625 C-47.90629767 71.87314736 -49.42930918 74.37960917 -51 77 C-52.79604448 79.63067911 -54.64957391 82.21989118 -56.5 84.8125 C-60.76891828 90.82716559 -65.00562869 96.86193797 -69.1875 102.9375 C-69.65671875 103.61723877 -70.1259375 104.29697754 -70.609375 104.99731445 C-72.96907152 108.39923005 -72.96907152 108.39923005 -75 112 C-75.66 112 -76.32 112 -77 112 C-77.24878906 112.7115625 -77.49757813 113.423125 -77.75390625 114.15625 C-79.13726474 117.31325621 -80.86373983 119.75043344 -82.9375 122.5 C-85.50454016 125.9163226 -87.81270103 129.33273755 -90 133 C-91.69663273 135.56412524 -93.44066772 138.0948874 -95.1875 140.625 C-95.67653809 141.33503174 -96.16557617 142.04506348 -96.66943359 142.77661133 C-100.05902837 147.68114291 -103.53292715 152.51649156 -107.05859375 157.32421875 C-111.93057955 164.03912876 -116.58038269 170.913067 -121.25 177.76953125 C-121.81823486 178.60291016 -122.38646973 179.43628906 -122.97192383 180.29492188 C-124.08553039 181.92912009 -125.19744774 183.56447117 -126.30737305 185.20117188 C-129.34303191 189.65728821 -132.46584396 194.01599482 -135.75073242 198.29223633 C-137.15144345 200.13722966 -137.15144345 200.13722966 -138.625 202.875 C-140 205 -140 205 -141.859375 205.78125 C-144.84541053 207.48132862 -145.89990713 209.68398264 -147.625 212.625 C-148.69825791 214.44813244 -149.81166733 216.2496972 -151 218 C-151.66 218 -152.32 218 -153 218 C-153.309375 218.99 -153.309375 218.99 -153.625 220 C-155.1824863 223.39815192 -157.1915116 225.9986049 -159.48046875 228.93359375 C-160.90917294 230.87648453 -162.05683201 232.81149494 -163.1875 234.9375 C-165 238 -165 238 -168 239 C-168 239.66 -168 240.32 -168 241 C-168.66 241 -169.32 241 -170 241 C-170.13306954 230.29565711 -170.26357489 219.59128594 -170.39115143 208.88687611 C-170.45051835 203.91179223 -170.51064146 198.93672034 -170.57275391 193.96166992 C-170.89239398 168.30641489 -171.07626196 142.65730874 -171 117 C-169.515 116.505 -169.515 116.505 -168 116 C-167.979375 114.700625 -167.95875 113.40125 -167.9375 112.0625 C-167.37969539 106.83718328 -165.09938971 104.03318284 -161.76171875 100.11328125 C-159.87212013 97.84660086 -158.47903638 95.44578649 -157.07421875 92.85546875 C-155.24450549 89.69505493 -153.08921589 86.76475728 -150.9765625 83.7890625 C-148.85381502 80.79372316 -146.76955011 77.77375475 -144.6875 74.75 C-139.8680267 67.77838258 -134.94363084 60.88392855 -130 54 C-129.67 54.66 -129.34 55.32 -129 56 C-129.52400391 56.67095703 -129.52400391 56.67095703 -130.05859375 57.35546875 C-133.00824903 61.17602855 -133.00824903 61.17602855 -134.5 65.6875 C-135.22841636 69.05642566 -137.29044318 70.01739745 -140 72 C-141.99097846 74.98646769 -142.94124926 77.59687262 -144 81 C-144.66 81 -145.32 81 -146 81 C-146 81.66 -146 82.32 -146 83 C-130.16 82.67 -114.32 82.34 -98 82 C-98 100.15 -98 118.3 -98 137 C-92.52227282 134.26113641 -91.01753719 130.21203738 -88.5625 124.875 C-86.7760564 121.58794378 -84.64973192 119.64973192 -82 117 C-79.24897153 113.39297637 -76.63178546 109.69441014 -74 106 C-73.43410156 105.26910156 -72.86820312 104.53820312 -72.28515625 103.78515625 C-70.87898484 102.0812183 -70.87898484 102.0812183 -70.5625 100 C-69.78650811 97.24091774 -68.00304516 96.00304516 -66 94 C-65.835 93.319375 -65.67 92.63875 -65.5 91.9375 C-64.80058897 89.22728227 -63.22094083 88.63304473 -61 87 C-59.96394048 85.35550663 -58.96970411 83.68447372 -58 82 C-56.8210911 80.07803716 -55.63342839 78.16141902 -54.4375 76.25 C-53.53837891 74.80367187 -53.53837891 74.80367187 -52.62109375 73.328125 C-51 71 -51 71 -49 70 C-48.566875 69.0925 -48.13375 68.185 -47.6875 67.25 C-45.87657325 63.76228923 -43.83254653 61.6909192 -41 59 C-38.69827814 56.2895245 -38.69827814 56.2895245 -37.5625 53 C-37 51 -37 51 -35.25 49.3125 C-32.58021711 46.56855648 -31.0961007 43.6822371 -29.296875 40.328125 C-27.43425955 36.98439366 -25.36853267 34.00867663 -23 31 C-22.34 31 -21.68 31 -21 31 C-20.90589844 30.44441406 -20.81179688 29.88882813 -20.71484375 29.31640625 C-19.81576095 26.40298493 -18.35054557 24.40210335 -16.5625 21.9375 C-15.94503906 21.08027344 -15.32757813 20.22304687 -14.69140625 19.33984375 C-14.13324219 18.56769531 -13.57507813 17.79554688 -13 17 C-12.01 15.515 -12.01 15.515 -11 14 C-10.34 14 -9.68 14 -9 14 C-8.67 12.68 -8.34 11.36 -8 10 C-7.34 10 -6.68 10 -6 10 C-5.8453125 9.1646875 -5.8453125 9.1646875 -5.6875 8.3125 C-4.85988599 5.52870742 -3.62262248 3.40148127 -2 1 C-1.34 0.67 -0.68 0.34 0 0 Z " fill="#794399" transform="translate(417,117)"/>
<path d="M0 0 C29.7 0 59.4 0 90 0 C89.67 23.1 89.34 46.2 89 70 C65 70 65 70 56 68 C56 67.34 56 66.68 56 66 C55.40832031 65.98582031 54.81664062 65.97164063 54.20703125 65.95703125 C50.10510737 65.70944367 47.67154915 65.52764576 44.375 62.9375 C43.59125 61.968125 42.8075 60.99875 42 60 C40.91313971 58.78885364 39.82443438 57.57936167 38.734375 56.37109375 C35.06381455 52.18509087 31.95133125 47.75721601 28.875 43.125 C23.88693405 35.71854428 18.76506686 28.43168787 13.48974609 21.22705078 C10.3401206 16.91164823 7.32039714 12.53401074 4.39233398 8.06494141 C3.42246973 6.62655601 2.39420369 5.22657915 1.32446289 3.86083984 C0 2 0 2 0 0 Z " fill="#50408E" transform="translate(156,55)"/>
<path d="M0 0 C1.37562854 1.28965176 2.70766393 2.62689293 4 4 C4 4.66 4 5.32 4 6 C7.33537489 4.88820837 8.63707344 3.52588702 11 1 C10.74438677 3.3431213 10.40729228 5.67843403 10 8 C9.34 8.33 8.68 8.66 8 9 C8 49.92 8 90.84 8 133 C8.66 133 9.32 133 10 133 C10 132.34 10 131.68 10 131 C11.66666667 129.33333333 13.33333333 127.66666667 15 126 C16.03162801 124.35272302 17.02828931 122.683317 18 121 C19.13689786 119.14034108 20.28298202 117.28627156 21.4375 115.4375 C22.01371094 114.50808594 22.58992188 113.57867187 23.18359375 112.62109375 C24.93157462 110.09873856 26.82910384 108.15310193 29 106 C30.1706241 104.15734806 30.1706241 104.15734806 31.0625 102.3125 C33 99 33 99 36 98 C34.63672434 101.83635361 32.88547557 104.7558142 30.4375 108 C26.22210999 113.6763194 22.18749586 119.46080294 18.18066406 125.28564453 C16.10557755 128.29872507 14.02092345 131.30518116 11.9375 134.3125 C11.17574079 135.4127324 10.41401815 136.51299013 9.65234375 137.61328125 C9.10707031 138.40089844 8.56179687 139.18851563 8 140 C6.29296875 139.890625 6.29296875 139.890625 4 139 C2.28077209 136.94524056 0.79721495 134.96331423 -0.6875 132.75 C-1.12320313 132.11956787 -1.55890625 131.48913574 -2.0078125 130.83959961 C-2.91006368 129.53215266 -3.80765944 128.22148141 -4.70068359 126.90771484 C-5.88783827 125.1646809 -7.08961513 123.43343028 -8.30078125 121.70703125 C-12.30443683 115.98244379 -16.20631752 110.19929694 -20.0625 104.375 C-23.49282702 99.19656946 -27.04650273 94.14414671 -30.734375 89.14453125 C-33.75049408 84.95836598 -36.65602161 80.7002528 -39.5625 76.4375 C-40.1311377 75.60355713 -40.69977539 74.76961426 -41.28564453 73.91040039 C-42.37892005 72.30681279 -43.47218238 70.7032162 -44.56542969 69.09960938 C-49.04190434 62.54792762 -53.64281667 56.08500917 -58.25 49.625 C-58.67498779 49.02905029 -59.09997559 48.43310059 -59.5378418 47.8190918 C-61.65811087 44.85307611 -63.79640567 41.90473798 -66 39 C-65.67 38.34 -65.34 37.68 -65 37 C-60 42.75 -60 42.75 -60 45 C-52.61076164 45.96441058 -45.31813558 46.21079679 -37.87109375 46.31640625 C-36.64084976 46.33718735 -35.41060577 46.35796844 -34.14308167 46.37937927 C-30.24127395 46.4443833 -26.3394031 46.50352978 -22.4375 46.5625 C-19.78058412 46.60525553 -17.12369249 46.64934774 -14.46679688 46.69335938 C-7.97792991 46.80001386 -1.48900116 46.90186847 5 47 C4.95573327 41.83987359 4.8857819 36.68095758 4.79248047 31.52148438 C4.76433416 29.76800188 4.74308815 28.01439401 4.72900391 26.26074219 C4.70748573 23.73307401 4.66079298 21.20690316 4.609375 18.6796875 C4.60814636 17.90132538 4.60691772 17.12296326 4.60565186 16.3210144 C4.46464443 11.02704274 3.16885806 8.37315031 0 4 C0 2.68 0 1.36 0 0 Z " fill="#7C73B3" transform="translate(239,225)"/>
<path d="M0 0 C22.77 0 45.54 0 69 0 C69.24956592 17.25570108 69.24956592 17.25570108 69.35546875 24.77734375 C69.42692434 29.85173978 69.4987002 34.92612942 69.57275391 40.00048828 C69.84961747 59.00164068 70.0853461 77.99626851 70 97 C66.21792737 95.73930912 65.5556169 93.89467387 63.5859375 90.58203125 C61.66617274 87.4565029 59.59574967 84.44613015 57.5 81.4375 C57.10852783 80.87393799 56.71705566 80.31037598 56.3137207 79.72973633 C54.25779181 76.77830929 52.17619364 73.84774881 50.0625 70.9375 C48 68 48 68 46.9375 65.6875 C46.1125376 63.81474667 46.1125376 63.81474667 44 63.0625 C41.25013332 61.60163333 40.91166696 59.88694538 40 57 C39.34 57 38.68 57 38 57 C37.505 56.071875 37.01 55.14375 36.5 54.1875 C34.08729809 49.96737331 31.22811 46.13336355 28.34375 42.2265625 C25.14666357 37.82524018 22.08064879 33.33876596 19.00878906 28.84960938 C15.89239175 24.29571128 12.74235976 19.76770976 9.5625 15.2578125 C7.39246797 12.12211622 5.32058185 8.9244139 3.26171875 5.71484375 C2.09650971 3.85850478 2.09650971 3.85850478 0 3 C0 2.01 0 1.02 0 0 Z " fill="#097AB8" transform="translate(29,55)"/>
<path d="M0 0 C1.24132187 0.00222061 2.48264374 0.00444122 3.76158142 0.00672913 C4.44447739 0.0065831 5.12737335 0.00643707 5.83096313 0.00628662 C8.09815092 0.00698575 10.36525752 0.01477811 12.63243103 0.02259827 C14.20041865 0.02446245 15.76840685 0.02588635 17.33639526 0.02688599 C21.47103981 0.03071117 25.60564944 0.04054146 29.74028015 0.05158997 C33.95627876 0.06180407 38.172283 0.0663836 42.38829041 0.07142639 C50.66630125 0.08216373 58.94428368 0.09924015 67.22227478 0.12025452 C67.22227478 1.11025452 67.22227478 2.10025452 67.22227478 3.12025452 C66.56227478 3.12025452 65.90227478 3.12025452 65.22227478 3.12025452 C64.99153259 3.63072327 64.76079041 4.14119202 64.52305603 4.66712952 C62.72134464 8.06495159 60.56533063 11.18860044 58.40977478 14.37025452 C55.58944866 18.55066976 52.81079956 22.72799986 50.22227478 27.05775452 C49.56227478 28.06837952 48.90227478 29.07900452 48.22227478 30.12025452 C47.56227478 30.12025452 46.90227478 30.12025452 46.22227478 30.12025452 C45.97477478 30.82279358 45.72727478 31.52533264 45.47227478 32.24916077 C43.2428636 37.36983957 39.75171737 41.74257703 36.52500916 46.27503967 C35.19203963 48.16308009 33.88511375 50.06721712 32.58164978 51.97572327 C31.71220009 53.23247034 30.84241693 54.48898679 29.97227478 55.74525452 C29.57266541 56.33685364 29.17305603 56.92845276 28.76133728 57.53797913 C26.28002903 61.07969746 23.9842612 63.05084263 20.22227478 65.12025452 C19.70664978 65.98650452 19.19102478 66.85275452 18.65977478 67.74525452 C17.22227478 70.12025452 17.22227478 70.12025452 15.03477478 70.93275452 C14.43664978 70.99462952 13.83852478 71.05650452 13.22227478 71.12025452 C13.22227478 71.78025452 13.22227478 72.44025452 13.22227478 73.12025452 C10.95150636 73.14725176 8.68064657 73.16664904 6.40977478 73.18275452 C4.51291931 73.20015686 4.51291931 73.20015686 2.57774353 73.21791077 C-0.77772522 73.12025452 -0.77772522 73.12025452 -3.77772522 72.12025452 C-4.60193078 67.83817125 -4.88027295 63.84532194 -4.81532288 59.48817444 C-4.79845428 58.19050644 -4.78158569 56.89283844 -4.76420593 55.55584717 C-4.74032966 54.15413469 -4.71618396 52.75242679 -4.69178772 51.35072327 C-4.66999897 49.90438326 -4.64855029 48.4580381 -4.62742615 47.01168823 C-4.58208377 43.99157564 -4.53286978 40.9715581 -4.48085022 37.95155334 C-4.41432807 34.07324053 -4.35717232 30.19485594 -4.30282021 26.31635571 C-4.26008855 23.3352857 -4.21264242 20.3543054 -4.16372299 17.37333107 C-4.14077833 15.94235244 -4.1192746 14.51134998 -4.09921646 13.08032799 C-4.07055733 11.08859822 -4.03491878 9.09697251 -3.99891663 7.10536194 C-3.98035614 5.97096176 -3.96179565 4.83656158 -3.94267273 3.66778564 C-3.71207354 0.10629749 -3.59403971 0.15559477 0 0 Z " fill="#5F014F" transform="translate(393.77772521972656,54.87974548339844)"/>
<path d="M0 0 C0.33 0.66 0.66 1.32 1 2 C-0.04800781 3.44632812 -0.04800781 3.44632812 -1.1171875 4.921875 C-2.03660959 6.19780769 -2.95587205 7.47385541 -3.875 8.75 C-4.33519531 9.38421875 -4.79539062 10.0184375 -5.26953125 10.671875 C-7.43662041 13.68695557 -9.49857822 16.58297113 -11 20 C-11.66 20 -12.32 20 -13 20 C-13.23589844 20.68707031 -13.47179687 21.37414062 -13.71484375 22.08203125 C-15.2614332 25.59358844 -17.3382584 28.58480595 -19.5625 31.6875 C-22.4980153 35.70970455 -22.4980153 35.70970455 -25 40 C-25.66 40 -26.32 40 -27 40 C-27.23589844 40.67933594 -27.47179687 41.35867187 -27.71484375 42.05859375 C-29.28981235 45.66330912 -31.36296388 48.81971718 -33.5625 52.0625 C-34.00215088 52.71718262 -34.44180176 53.37186523 -34.89477539 54.04638672 C-38.45642605 59.3043349 -42.20961475 64.38596176 -46.08984375 69.4140625 C-47.90629767 71.87314736 -49.42930918 74.37960917 -51 77 C-52.79604448 79.63067911 -54.64957391 82.21989118 -56.5 84.8125 C-60.76891828 90.82716559 -65.00562869 96.86193797 -69.1875 102.9375 C-69.65671875 103.61723877 -70.1259375 104.29697754 -70.609375 104.99731445 C-72.96907152 108.39923005 -72.96907152 108.39923005 -75 112 C-75.66 112 -76.32 112 -77 112 C-77.24878906 112.7115625 -77.49757813 113.423125 -77.75390625 114.15625 C-79.13726474 117.31325621 -80.86373983 119.75043344 -82.9375 122.5 C-85.50454016 125.9163226 -87.81270103 129.33273755 -90 133 C-91.69663273 135.56412524 -93.44066772 138.0948874 -95.1875 140.625 C-95.67653809 141.33503174 -96.16557617 142.04506348 -96.66943359 142.77661133 C-100.05902837 147.68114291 -103.53292715 152.51649156 -107.05859375 157.32421875 C-111.93057955 164.03912876 -116.58038269 170.913067 -121.25 177.76953125 C-121.81823486 178.60291016 -122.38646973 179.43628906 -122.97192383 180.29492188 C-124.08553039 181.92912009 -125.19744774 183.56447117 -126.30737305 185.20117188 C-129.34303191 189.65728821 -132.46584396 194.01599482 -135.75073242 198.29223633 C-137.15144345 200.13722966 -137.15144345 200.13722966 -138.625 202.875 C-140 205 -140 205 -141.859375 205.78125 C-144.84541053 207.48132862 -145.89990713 209.68398264 -147.625 212.625 C-148.69825791 214.44813244 -149.81166733 216.2496972 -151 218 C-151.66 218 -152.32 218 -153 218 C-153.309375 218.99 -153.309375 218.99 -153.625 220 C-155.1824863 223.39815192 -157.1915116 225.9986049 -159.48046875 228.93359375 C-160.90917294 230.87648453 -162.05683201 232.81149494 -163.1875 234.9375 C-165 238 -165 238 -168 239 C-168 239.66 -168 240.32 -168 241 C-168.66 241 -169.32 241 -170 241 C-170 212.29 -170 183.58 -170 154 C-150.86 154 -131.72 154 -112 154 C-112 154.66 -112 155.32 -112 156 C-110.0692866 155.82629339 -110.0692866 155.82629339 -108 155 C-106.57395217 153.0639528 -106.57395217 153.0639528 -105.5 150.6875 C-103.69320463 147.16871026 -101.91670058 144.70836482 -99 142 C-98.67 141.01 -98.34 140.02 -98 139 C-97.34 139 -96.68 139 -96 139 C-95.62875 138.2265625 -95.62875 138.2265625 -95.25 137.4375 C-93.91753671 134.83919659 -92.46704626 132.32105754 -91 129.796875 C-90.10970697 128.19712972 -89.32759908 126.53825886 -88.5625 124.875 C-86.7760564 121.58794378 -84.64973192 119.64973192 -82 117 C-79.24897153 113.39297637 -76.63178546 109.69441014 -74 106 C-73.43410156 105.26910156 -72.86820312 104.53820312 -72.28515625 103.78515625 C-70.87898484 102.0812183 -70.87898484 102.0812183 -70.5625 100 C-69.78650811 97.24091774 -68.00304516 96.00304516 -66 94 C-65.835 93.319375 -65.67 92.63875 -65.5 91.9375 C-64.80058897 89.22728227 -63.22094083 88.63304473 -61 87 C-59.96394048 85.35550663 -58.96970411 83.68447372 -58 82 C-56.8210911 80.07803716 -55.63342839 78.16141902 -54.4375 76.25 C-53.53837891 74.80367187 -53.53837891 74.80367187 -52.62109375 73.328125 C-51 71 -51 71 -49 70 C-48.566875 69.0925 -48.13375 68.185 -47.6875 67.25 C-45.87657325 63.76228923 -43.83254653 61.6909192 -41 59 C-38.69827814 56.2895245 -38.69827814 56.2895245 -37.5625 53 C-37 51 -37 51 -35.25 49.3125 C-32.58021711 46.56855648 -31.0961007 43.6822371 -29.296875 40.328125 C-27.43425955 36.98439366 -25.36853267 34.00867663 -23 31 C-22.34 31 -21.68 31 -21 31 C-20.90589844 30.44441406 -20.81179688 29.88882813 -20.71484375 29.31640625 C-19.81576095 26.40298493 -18.35054557 24.40210335 -16.5625 21.9375 C-15.94503906 21.08027344 -15.32757813 20.22304687 -14.69140625 19.33984375 C-14.13324219 18.56769531 -13.57507813 17.79554688 -13 17 C-12.01 15.515 -12.01 15.515 -11 14 C-10.34 14 -9.68 14 -9 14 C-8.67 12.68 -8.34 11.36 -8 10 C-7.34 10 -6.68 10 -6 10 C-5.8453125 9.1646875 -5.8453125 9.1646875 -5.6875 8.3125 C-4.85988599 5.52870742 -3.62262248 3.40148127 -2 1 C-1.34 0.67 -0.68 0.34 0 0 Z " fill="#8D4E9D" transform="translate(417,117)"/>
<path d="M0 0 C4.35347217 3.82577857 7.13821856 8.19044598 10.1796875 13.1015625 C12.95396476 17.51897392 15.97926185 21.74909699 19 26 C23.50073105 32.37413179 27.91676257 38.80325679 32.3125 45.25 C37.07960087 52.2391883 41.92532773 59.16137279 46.87890625 66.01953125 C53.2228079 74.93370613 53.2228079 74.93370613 54.75 79.125 C54.99234375 79.76695312 55.2346875 80.40890625 55.484375 81.0703125 C56 83 56 83 56 87 C56.61875 87.226875 57.2375 87.45375 57.875 87.6875 C60.61973575 89.38277796 60.93463654 91.02945954 62 94 C55.82527965 94.02474609 49.65058828 94.04288192 43.47583008 94.05493164 C41.37589007 94.05995581 39.27595354 94.06677625 37.17602539 94.07543945 C34.15510191 94.0875889 31.13422474 94.09324753 28.11328125 94.09765625 C27.17664139 94.10281754 26.24000153 94.10797882 25.27497864 94.11329651 C23.95417549 94.11340981 23.95417549 94.11340981 22.60668945 94.11352539 C21.83613724 94.115746 21.06558502 94.11796661 20.27168274 94.12025452 C17.77244541 93.9879541 15.44007068 93.54370601 13 93 C12.99191315 92.14079956 12.98382629 91.28159912 12.97549438 90.3963623 C12.89735936 82.27541717 12.81001236 74.15463356 12.71247292 66.0338974 C12.66265489 61.85954574 12.61632429 57.68521762 12.578125 53.51074219 C12.54108819 49.4776209 12.49467987 45.4447038 12.44193649 41.41175842 C12.42348981 39.87772729 12.40834646 38.34365255 12.39665604 36.80955505 C12.43169897 25.72833772 12.43169897 25.72833772 10 15 C8.12272098 13.70715957 8.12272098 13.70715957 6 13 C4.296875 10.9765625 4.296875 10.9765625 2.75 8.625 C2.22921875 7.85414062 1.7084375 7.08328125 1.171875 6.2890625 C0 4 0 4 0 0 Z " fill="#5551A0" transform="translate(157,106)"/>
<path d="M0 0 C0.99 0.33 1.98 0.66 3 1 C3 1.66 3 2.32 3 3 C3.66 3 4.32 3 5 3 C5.56074219 4.02480469 6.12148437 5.04960937 6.69921875 6.10546875 C8.78609197 9.75543294 11.20220744 13.01161035 13.8125 16.3125 C18.06876324 21.75066774 22.09174457 27.30511351 26 33 C29.52894799 38.08298013 33.08866412 43.13633665 36.75 48.125 C39.98219527 52.54833057 43.10027343 57.03784044 46.1875 61.5625 C50.71399495 68.1903274 55.37105847 74.71342229 60.0859375 81.20825195 C63.82500216 86.36220261 67.5223912 91.54321375 71.1875 96.75 C81.91082126 112.00780945 81.91082126 112.00780945 93 127 C97.08518124 125.47717574 98.63701601 123.01330343 101 119.4375 C101.79064976 118.25973337 102.58237306 117.08268691 103.375 115.90625 C103.79652344 115.27589844 104.21804687 114.64554687 104.65234375 113.99609375 C107.0519836 110.44184457 109.52618152 106.94034546 112 103.4375 C112.5144165 102.70764893 113.02883301 101.97779785 113.55883789 101.22583008 C116.45098338 97.13791572 119.40149223 93.10801936 122.4375 89.125 C126.9086641 83.23377471 131.03925578 77.1283622 135.18969727 71.00854492 C138.98971673 65.42435296 142.92730138 59.99540657 147.01953125 54.62109375 C151.44427787 48.76506815 155.54360498 42.70153244 159.5625 36.5625 C166.03136377 26.80201399 172.93613753 17.17891827 180.359375 8.12109375 C182.18112787 6.00709785 182.18112787 6.00709785 183 3 C183.66 3 184.32 3 185 3 C185.33 2.01 185.66 1.02 186 0 C186.66 0 187.32 0 188 0 C186.1262188 4.03583643 183.73801641 7.73940536 181.375 11.5 C180.92914551 12.21124023 180.48329102 12.92248047 180.02392578 13.65527344 C176.12721767 19.84604499 172.09206502 25.93675732 168 32 C166.70712075 33.93669107 165.41547521 35.87420623 164.125 37.8125 C163.47144531 38.7921875 162.81789063 39.771875 162.14453125 40.78125 C160.57706312 43.13387976 159.01208031 45.48806484 157.44921875 47.84375 C157.0114209 48.50270264 156.57362305 49.16165527 156.12255859 49.84057617 C155.27686266 51.11353295 154.43206996 52.38709049 153.58837891 53.66137695 C151.62194069 56.61907697 149.61923464 59.52763457 147.51171875 62.38671875 C145.124509 65.69512044 143.20020573 69.17751176 141.25537109 72.75878906 C139.29471207 76.25914881 137.06503049 79.5576799 134.8125 82.875 C133.76147003 84.43733271 132.71070697 85.999845 131.66015625 87.5625 C131.08410645 88.41714844 130.50805664 89.27179688 129.91455078 90.15234375 C126.5699526 95.1270177 123.25017106 100.11825836 119.92733765 105.10748291 C117.33257027 109.00296327 114.7355183 112.89692103 112.13867188 116.79101562 C110.69606691 118.95558179 109.25468787 121.12096542 107.81445312 123.28710938 C107.11771484 124.33447266 106.42097656 125.38183594 105.703125 126.4609375 C105.08598633 127.3895459 104.46884766 128.3181543 103.83300781 129.27490234 C100.9506418 133.56006077 97.98395539 137.78516301 95 142 C91.18298486 140.5229811 89.82199828 138.59509421 87.75 135.125 C85.29695156 131.1147085 82.80634662 127.15446223 80.1875 123.25 C79.50816406 122.23550781 78.82882813 121.22101563 78.12890625 120.17578125 C77.42636719 119.12777344 76.72382813 118.07976562 76 117 C74.13710599 114.20739352 72.27524234 111.41410969 70.41479492 108.61987305 C67.8993162 104.84361525 65.37824591 101.07118564 62.85128784 97.30259705 C47.77828785 74.8185474 47.77828785 74.8185474 41.34814453 64.38012695 C37.44601466 58.0563662 33.31553647 51.89190615 29.1640625 45.72998047 C26.73638294 42.12206576 24.33183562 38.49866711 21.921875 34.87890625 C20.64543116 32.96683488 19.36420926 31.0579442 18.078125 29.15234375 C14.15971816 23.32959119 10.35248175 17.44618881 6.625 11.5 C6.19590332 10.81711914 5.76680664 10.13423828 5.32470703 9.43066406 C3.40254276 6.34752792 1.53274282 3.30129223 0 0 Z " fill="#BFBFBF" transform="translate(151,257)"/>
<path d="M0 0 C3.9028896 1.25450023 4.94168489 3.53396272 6.84472656 6.98754883 C8.85320401 10.48625542 11.19162324 13.75718123 13.5 17.0625 C14.90264926 19.08239138 16.30421836 21.10300293 17.703125 23.12548828 C18.54330033 24.33988327 19.38684445 25.55195725 20.234375 26.76123047 C23 30.77455161 23 30.77455161 23 33 C24.485 33.495 24.485 33.495 26 34 C27.01605632 35.70435254 28.02532696 37.41425652 28.9609375 39.1640625 C30.37595681 41.66428459 32.18695974 43.77756355 34 46 C34.68642578 47.15242188 34.68642578 47.15242188 35.38671875 48.328125 C37.03536705 51.058574 38.8428383 53.56940332 40.75 56.125 C43.52421037 59.90016174 46.13961453 63.71640632 48.625 67.6875 C50.74420933 71.0521672 52.88244529 74.38405841 55.1875 77.625 C55.85845703 78.57246094 55.85845703 78.57246094 56.54296875 79.5390625 C59.1937228 82.19692313 61.97960723 81.99945456 65.65112305 82.09765625 C67.10468587 82.09076947 68.55823055 82.07875982 70.01171875 82.0625 C70.78054886 82.05871338 71.54937897 82.05492676 72.34150696 82.05102539 C74.79022889 82.03883302 77.23883175 82.02019124 79.6875 82 C82.92056947 81.97351235 86.15358227 81.95348342 89.38671875 81.9375 C90.50852791 81.92505249 90.50852791 81.92505249 91.65299988 81.91235352 C93.43555212 81.9037919 95.21822502 81.9466734 97 82 C98 83 98 83 98.12025452 85.11888123 C98.11803391 86.05216751 98.11581329 86.9854538 98.11352539 87.94702148 C98.11341209 89.52887489 98.11341209 89.52887489 98.11329651 91.14268494 C98.10813522 92.29055984 98.10297394 93.43843475 98.09765625 94.62109375 C98.0962413 95.79132584 98.09482635 96.96155792 98.09336853 98.16725159 C98.08775012 101.92402655 98.07519903 105.68074293 98.0625 109.4375 C98.05748698 111.96940018 98.05292373 114.50130129 98.04882812 117.03320312 C98.03896275 122.60686412 98.02472674 128.18049472 98.00672913 133.75413513 C97.9952522 137.58459199 98.73014685 140.34917218 100 144 C96.06243446 140.41869039 93.22864643 136.24524502 90.25 131.875 C89.74339844 131.14667969 89.23679687 130.41835937 88.71484375 129.66796875 C88.23660156 128.97058594 87.75835937 128.27320313 87.265625 127.5546875 C86.83024414 126.92030762 86.39486328 126.28592773 85.94628906 125.63232422 C85 124 85 124 85 122 C84.34 122 83.68 122 83 122 C82.505 121.071875 82.01 120.14375 81.5 119.1875 C79.08405943 114.96170848 76.22043037 111.12286952 73.33203125 107.2109375 C70.69536247 103.58054933 68.15502357 99.8925573 65.625 96.1875 C59.08448351 86.62557397 52.51053177 77.05481804 45.3515625 67.94140625 C43.76063855 65.65617733 42.43704881 63.24650932 41.07128906 60.82250977 C39.40401632 57.98609431 37.49117052 55.3512119 35.5625 52.6875 C35.13420898 52.09267822 34.70591797 51.49785645 34.26464844 50.88500977 C31.84049661 47.52221184 29.39669703 44.17396632 26.94921875 40.828125 C19.13193633 30.11323335 11.69274561 19.18745196 4.41943359 8.09619141 C3.43722932 6.6456916 2.39883755 5.23226509 1.31884766 3.85302734 C0 2 0 2 0 0 Z " fill="#4E79B1" transform="translate(73,118)"/>
<path d="M0 0 C24.09 0 48.18 0 73 0 C73 0.66 73 1.32 73 2 C37.36 2.495 37.36 2.495 1 3 C1 24.78 1 46.56 1 69 C36.145 69.495 36.145 69.495 72 70 C72.33 71.65 72.66 73.3 73 75 C71.02 76.65 69.04 78.3 67 80 C68.875 75.25 68.875 75.25 70 73 C68.2292662 73.01332367 68.2292662 73.01332367 66.42276001 73.0269165 C55.2710912 73.10817605 44.11948285 73.16804873 32.96758461 73.20724869 C27.23493691 73.22807964 21.50252916 73.25631532 15.77001953 73.30175781 C10.23273755 73.34537556 4.69568568 73.36917087 -0.84175491 73.37950897 C-2.94917037 73.38687177 -5.05657394 73.40124938 -7.16389084 73.42292023 C-10.12694788 73.45216578 -13.08906682 73.45594717 -16.05224609 73.45410156 C-16.91396423 73.46848267 -17.77568237 73.48286377 -18.66351318 73.49768066 C-26.95125337 73.44220758 -34.12357961 70.58428026 -41 66 C-38.3333581 64.66667905 -36.83319697 65.32897967 -34 66 C-34 66.66 -34 67.32 -34 68 C-26.813608 68.89924358 -19.67290051 69.29646056 -12.4375 69.5625 C-11.33341797 69.60568359 -10.22933594 69.64886719 -9.09179688 69.69335938 C-6.39462815 69.79844387 -3.69738297 69.90059413 -1 70 C-1.00222061 69.15253204 -1.00444122 68.30506409 -1.00672913 67.43191528 C-1.02674261 59.45638957 -1.04197955 51.48087225 -1.05181217 43.50532722 C-1.05703709 39.40474504 -1.06412768 35.30418355 -1.07543945 31.20361328 C-1.08628218 27.24845043 -1.09227979 23.29330752 -1.09487724 19.33813095 C-1.09672898 17.82701173 -1.10034482 16.31589363 -1.10573006 14.80478287 C-1.11295886 12.69291042 -1.11399016 10.58112105 -1.11352539 8.46923828 C-1.115746 7.26566681 -1.11796661 6.06209534 -1.12025452 4.822052 C-1 2 -1 2 0 0 Z " fill="#754B8E" transform="translate(246,55)"/>
<path d="M0 0 C0.33 0.66 0.66 1.32 1 2 C-0.04800781 3.44632812 -0.04800781 3.44632812 -1.1171875 4.921875 C-2.03660959 6.19780769 -2.95587205 7.47385541 -3.875 8.75 C-4.33519531 9.38421875 -4.79539062 10.0184375 -5.26953125 10.671875 C-7.43662041 13.68695557 -9.49857822 16.58297113 -11 20 C-11.66 20 -12.32 20 -13 20 C-13.23589844 20.68707031 -13.47179687 21.37414062 -13.71484375 22.08203125 C-15.2614332 25.59358844 -17.3382584 28.58480595 -19.5625 31.6875 C-22.4980153 35.70970455 -22.4980153 35.70970455 -25 40 C-25.66 40 -26.32 40 -27 40 C-27.23589844 40.67933594 -27.47179687 41.35867187 -27.71484375 42.05859375 C-29.28981235 45.66330912 -31.36296388 48.81971718 -33.5625 52.0625 C-34.00215088 52.71718262 -34.44180176 53.37186523 -34.89477539 54.04638672 C-38.45642605 59.3043349 -42.20961475 64.38596176 -46.08984375 69.4140625 C-47.90629767 71.87314736 -49.42930918 74.37960917 -51 77 C-52.79604448 79.63067911 -54.64957391 82.21989118 -56.5 84.8125 C-60.76891828 90.82716559 -65.00562869 96.86193797 -69.1875 102.9375 C-69.65671875 103.61723877 -70.1259375 104.29697754 -70.609375 104.99731445 C-72.96907152 108.39923005 -72.96907152 108.39923005 -75 112 C-75.66 112 -76.32 112 -77 112 C-77.24878906 112.7115625 -77.49757813 113.423125 -77.75390625 114.15625 C-79.13726474 117.31325621 -80.86373983 119.75043344 -82.9375 122.5 C-85.50454016 125.9163226 -87.81270103 129.33273755 -90 133 C-91.69663273 135.56412524 -93.44066772 138.0948874 -95.1875 140.625 C-95.67653809 141.33503174 -96.16557617 142.04506348 -96.66943359 142.77661133 C-100.05902837 147.68114291 -103.53292715 152.51649156 -107.05859375 157.32421875 C-111.93057955 164.03912876 -116.58038269 170.913067 -121.25 177.76953125 C-122.10235229 179.01959961 -122.10235229 179.01959961 -122.97192383 180.29492188 C-124.08553039 181.92912009 -125.19744774 183.56447117 -126.30737305 185.20117188 C-129.34054256 189.65363404 -132.46019202 194.0104768 -135.73852539 198.28613281 C-137.15628685 200.1542557 -137.15628685 200.1542557 -138.75 202.9375 C-140 205 -140 205 -142 206 C-140.49935102 197.7464306 -133.65650832 190.30945527 -128.48046875 183.97265625 C-127.04057203 182.05406036 -125.99783997 180.17577788 -125 178 C-124.34 178 -123.68 178 -123 178 C-122.87625 177.4225 -122.7525 176.845 -122.625 176.25 C-121.99351176 173.97664233 -121.11141809 172.0746471 -120 170 C-119.34 170 -118.68 170 -118 170 C-118 169.01 -118 168.02 -118 167 C-116.35570171 165.31126121 -114.68615782 163.64694485 -113 162 C-111.95355934 160.36209288 -110.9601817 158.68991979 -110 157 C-107.26600177 152.70371707 -104.51264238 148.48987564 -101.1875 144.625 C-98.84268408 142.13538448 -98.84268408 142.13538448 -98 139 C-97.34 139 -96.68 139 -96 139 C-95.7525 138.484375 -95.505 137.96875 -95.25 137.4375 C-93.91753671 134.83919659 -92.46704626 132.32105754 -91 129.796875 C-90.10970697 128.19712972 -89.32759908 126.53825886 -88.5625 124.875 C-86.7760564 121.58794378 -84.64973192 119.64973192 -82 117 C-79.24897153 113.39297637 -76.63178546 109.69441014 -74 106 C-73.43410156 105.26910156 -72.86820312 104.53820312 -72.28515625 103.78515625 C-70.87898484 102.0812183 -70.87898484 102.0812183 -70.5625 100 C-69.78650811 97.24091774 -68.00304516 96.00304516 -66 94 C-65.835 93.319375 -65.67 92.63875 -65.5 91.9375 C-64.80058897 89.22728227 -63.22094083 88.63304473 -61 87 C-59.96394048 85.35550663 -58.96970411 83.68447372 -58 82 C-56.8210911 80.07803716 -55.63342839 78.16141902 -54.4375 76.25 C-53.53837891 74.80367187 -53.53837891 74.80367187 -52.62109375 73.328125 C-51 71 -51 71 -49 70 C-48.566875 69.0925 -48.13375 68.185 -47.6875 67.25 C-45.87657325 63.76228923 -43.83254653 61.6909192 -41 59 C-38.69827814 56.2895245 -38.69827814 56.2895245 -37.5625 53 C-37 51 -37 51 -35.25 49.3125 C-32.58021711 46.56855648 -31.0961007 43.6822371 -29.296875 40.328125 C-27.43425955 36.98439366 -25.36853267 34.00867663 -23 31 C-22.34 31 -21.68 31 -21 31 C-20.90589844 30.44441406 -20.81179688 29.88882813 -20.71484375 29.31640625 C-19.81576095 26.40298493 -18.35054557 24.40210335 -16.5625 21.9375 C-15.94503906 21.08027344 -15.32757813 20.22304687 -14.69140625 19.33984375 C-14.13324219 18.56769531 -13.57507813 17.79554688 -13 17 C-12.01 15.515 -12.01 15.515 -11 14 C-10.34 14 -9.68 14 -9 14 C-8.67 12.68 -8.34 11.36 -8 10 C-7.34 10 -6.68 10 -6 10 C-5.8453125 9.1646875 -5.8453125 9.1646875 -5.6875 8.3125 C-4.85988599 5.52870742 -3.62262248 3.40148127 -2 1 C-1.34 0.67 -0.68 0.34 0 0 Z " fill="#C79FC4" transform="translate(417,117)"/>
<path d="M0 0 C0.66 0 1.32 0 2 0 C1.99777939 0.69567078 1.99555878 1.39134155 1.99327087 2.10809326 C1.96538336 11.32205378 1.94863858 20.53600638 1.9375 29.75 C1.9364967 30.51168991 1.93549339 31.27337982 1.93445969 32.05815125 C1.91123971 50.9679816 1.96980615 69.87337352 2.2578125 88.78125 C2.2701335 89.59054207 2.28245449 90.39983414 2.29514885 91.23365021 C2.35751189 95.29482461 2.421387 99.35597399 2.4859314 103.41711426 C2.85958149 126.95480487 3.13561065 150.46091678 2.625 174 C2.59286911 175.53968445 2.59286911 175.53968445 2.56008911 177.11047363 C2.49805406 179.92806923 2.42757399 182.74524995 2.3515625 185.5625 C2.33166763 186.37209167 2.31177277 187.18168335 2.29127502 188.01580811 C2.1824962 191.48962525 1.92157811 194.65267744 1 198 C1.66 198.33 2.32 198.66 3 199 C2.01 199 1.02 199 0 199 C-1.54043978 132.65047284 -1.05709168 66.35332172 0 0 Z " fill="#81297B" transform="translate(319,55)"/>
<path d="M0 0 C0.66 0 1.32 0 2 0 C0.1262188 4.03583643 -2.26198359 7.73940536 -4.625 11.5 C-5.29378174 12.56686035 -5.29378174 12.56686035 -5.97607422 13.65527344 C-9.87278233 19.84604499 -13.90793498 25.93675732 -18 32 C-19.29287925 33.93669107 -20.58452479 35.87420623 -21.875 37.8125 C-22.52855469 38.7921875 -23.18210937 39.771875 -23.85546875 40.78125 C-25.42293688 43.13387976 -26.98791969 45.48806484 -28.55078125 47.84375 C-28.9885791 48.50270264 -29.42637695 49.16165527 -29.87744141 49.84057617 C-30.72313734 51.11353295 -31.56793004 52.38709049 -32.41162109 53.66137695 C-34.44087957 56.7135643 -36.50958224 59.72318669 -38.66015625 62.69140625 C-40.38887749 65.09496332 -41.90225873 67.48299926 -43.25 70.125 C-46.64408324 76.42206119 -50.86718886 82.17444704 -55 88 C-56 86 -56 86 -56 84 C-57.65 84.99 -59.3 85.98 -61 87 C-59.62803315 84.11963654 -58.07523393 81.50911111 -56.27734375 78.875 C-55.74318848 78.09181396 -55.2090332 77.30862793 -54.65869141 76.50170898 C-54.09069824 75.67614502 -53.52270508 74.85058105 -52.9375 74 C-52.35403809 73.14929932 -51.77057617 72.29859863 -51.16943359 71.42211914 C-47.2351749 65.71554997 -43.17957054 60.13576113 -38.98046875 54.62109375 C-34.55572213 48.76506815 -30.45639502 42.70153244 -26.4375 36.5625 C-19.96863623 26.80201399 -13.06386247 17.17891827 -5.640625 8.12109375 C-3.81887213 6.00709785 -3.81887213 6.00709785 -3 3 C-2.34 3 -1.68 3 -1 3 C-0.67 2.01 -0.34 1.02 0 0 Z " fill="#CBCACB" transform="translate(337,257)"/>
<path d="M0 0 C0.99 0.33 1.98 0.66 3 1 C3 1.66 3 2.32 3 3 C3.66 3 4.32 3 5 3 C5.56074219 4.02480469 6.12148437 5.04960937 6.69921875 6.10546875 C8.78609197 9.75543294 11.20220744 13.01161035 13.8125 16.3125 C18.06876324 21.75066774 22.09174457 27.30511351 26 33 C29.52894799 38.08298013 33.08866412 43.13633665 36.75 48.125 C40.46102512 53.20361979 44.01941596 58.37550536 47.55688477 63.57543945 C50.17477258 67.40471717 52.84761811 71.18327114 55.59375 74.921875 C56.1916333 75.73712646 56.7895166 76.55237793 57.40551758 77.39233398 C58.57625758 78.98235257 59.75301206 80.56796348 60.9362793 82.14868164 C61.46648682 82.86918701 61.99669434 83.58969238 62.54296875 84.33203125 C63.01758545 84.96858643 63.49220215 85.6051416 63.98120117 86.26098633 C65 88 65 88 65 91 C59.81439716 84.71354293 54.95988486 78.25985137 50.32666016 71.56005859 C48.14438595 68.26224731 48.14438595 68.26224731 45 66 C45.66128906 66.98742187 46.32257813 67.97484375 47.00390625 68.9921875 C47.85719174 70.28618088 48.71003351 71.58046693 49.5625 72.875 C50.00013672 73.52597656 50.43777344 74.17695313 50.88867188 74.84765625 C51.98754836 76.52625497 53.0007818 78.26023387 54 80 C53.67 80.66 53.34 81.32 53 82 C49.8882619 78.07557428 46.99358913 74.1719053 44.625 69.75 C41.48108312 63.90131653 37.72066339 58.49271924 34 53 C32.4124457 50.62780799 30.83123897 48.25140495 29.25 45.875 C26.52356117 41.77977976 23.79196879 37.68821417 21.046875 33.60546875 C16.05714501 26.17300049 11.12591145 18.71296937 6.375 11.125 C5.96121094 10.46508057 5.54742187 9.80516113 5.12109375 9.12524414 C3.26981609 6.14535718 1.48632032 3.18040584 0 0 Z " fill="#CECDCD" transform="translate(151,257)"/>
<path d="M0 0 C0.33 0 0.66 0 1 0 C1 28.71 1 57.42 1 87 C1.66 87 2.32 87 3 87 C3 86.34 3 85.68 3 85 C4.66666667 83.33333333 6.33333333 81.66666667 8 80 C9.03162801 78.35272302 10.02828931 76.683317 11 75 C12.13689786 73.14034108 13.28298202 71.28627156 14.4375 69.4375 C15.01371094 68.50808594 15.58992188 67.57867187 16.18359375 66.62109375 C17.93157462 64.09873856 19.82910384 62.15310193 22 60 C23.1706241 58.15734806 23.1706241 58.15734806 24.0625 56.3125 C26 53 26 53 29 52 C27.63672434 55.83635361 25.88547557 58.7558142 23.4375 62 C19.22210999 67.6763194 15.18749586 73.46080294 11.18066406 79.28564453 C9.10557755 82.29872507 7.02092345 85.30518116 4.9375 88.3125 C4.17574079 89.4127324 3.41401815 90.51299013 2.65234375 91.61328125 C2.10707031 92.40089844 1.56179687 93.18851562 1 94 C-2.57494467 93.39202266 -2.98241731 93.02092395 -5.5078125 90.015625 C-6.39151791 88.7683531 -7.26356526 87.51275597 -8.125 86.25 C-8.56714844 85.62867188 -9.00929687 85.00734375 -9.46484375 84.3671875 C-11.79689437 81.02763465 -13.67901163 77.88875229 -15 74 C-11.41193683 77.38872633 -8.54315201 80.76141332 -6 85 C-6 85.66 -6 86.32 -6 87 C-5.01 87 -4.02 87 -3 87 C-2.99191315 85.93955475 -2.98382629 84.8791095 -2.97549438 83.78652954 C-2.89812463 73.80949802 -2.81040888 63.83260442 -2.71247292 53.85575294 C-2.66245388 48.72612861 -2.6161245 43.59652544 -2.578125 38.46679688 C-2.54134284 33.51949844 -2.49500251 28.5723747 -2.44193649 23.62522507 C-2.42335484 21.73455229 -2.40826093 19.84384202 -2.39665604 17.95311356 C-2.37985784 15.31182076 -2.3508391 12.67093136 -2.31884766 10.02978516 C-2.31668747 9.24216293 -2.31452728 8.45454071 -2.31230164 7.64305115 C-2.22810432 2.22810432 -2.22810432 2.22810432 0 0 Z " fill="#8D5CA4" transform="translate(246,271)"/>
<path d="M0 0 C3.9028896 1.25450023 4.94168489 3.53396272 6.84472656 6.98754883 C8.85320401 10.48625542 11.19162324 13.75718123 13.5 17.0625 C14.90264926 19.08239138 16.30421836 21.10300293 17.703125 23.12548828 C18.54330033 24.33988327 19.38684445 25.55195725 20.234375 26.76123047 C23 30.77455161 23 30.77455161 23 33 C24.485 33.495 24.485 33.495 26 34 C27.01605632 35.70435254 28.02532696 37.41425652 28.9609375 39.1640625 C30.37595681 41.66428459 32.18695974 43.77756355 34 46 C34.68642578 47.15242188 34.68642578 47.15242188 35.38671875 48.328125 C37.03536705 51.058574 38.8428383 53.56940332 40.75 56.125 C43.44923969 59.79596598 45.98281562 63.49762057 48.375 67.375 C52.47399446 73.93151517 57.23260694 79.92452885 62 86 C66.70081755 92.04390828 70.67518261 98.07329711 74 105 C74.66 105 75.32 105 76 105 C76.40992188 105.77085937 76.81984375 106.54171875 77.2421875 107.3359375 C77.78101563 108.33882813 78.31984375 109.34171875 78.875 110.375 C79.40867187 111.37273437 79.94234375 112.37046875 80.4921875 113.3984375 C81.8820138 116.05348395 81.8820138 116.05348395 84 118 C84 118.99 84 119.98 84 121 C84.99 121 85.98 121 87 121 C87.495 122.11375 87.99 123.2275 88.5 124.375 C90.78530931 129.01987054 93.90709 132.7170477 97.29296875 136.60546875 C99.10583455 139.14845899 99.63451041 140.9287964 100 144 C96.06243446 140.41869039 93.22864643 136.24524502 90.25 131.875 C89.74339844 131.14667969 89.23679687 130.41835937 88.71484375 129.66796875 C88.23660156 128.97058594 87.75835937 128.27320313 87.265625 127.5546875 C86.83024414 126.92030762 86.39486328 126.28592773 85.94628906 125.63232422 C85 124 85 124 85 122 C84.34 122 83.68 122 83 122 C82.505 121.071875 82.01 120.14375 81.5 119.1875 C79.08405943 114.96170848 76.22043037 111.12286952 73.33203125 107.2109375 C70.69536247 103.58054933 68.15502357 99.8925573 65.625 96.1875 C59.08448351 86.62557397 52.51053177 77.05481804 45.3515625 67.94140625 C43.76063855 65.65617733 42.43704881 63.24650932 41.07128906 60.82250977 C39.40401632 57.98609431 37.49117052 55.3512119 35.5625 52.6875 C35.13420898 52.09267822 34.70591797 51.49785645 34.26464844 50.88500977 C31.84049661 47.52221184 29.39669703 44.17396632 26.94921875 40.828125 C19.13193633 30.11323335 11.69274561 19.18745196 4.41943359 8.09619141 C3.43722932 6.6456916 2.39883755 5.23226509 1.31884766 3.85302734 C0 2 0 2 0 0 Z " fill="#B2C4DC" transform="translate(73,118)"/>
<path d="M0 0 C2.31 0.33 4.62 0.66 7 1 C7 1.66 7 2.32 7 3 C8.134375 3.144375 9.26875 3.28875 10.4375 3.4375 C14 4 14 4 15 5 C18.01276111 5.12534988 21.00369583 5.18612016 24.01782227 5.20532227 C25.43718582 5.22017166 25.43718582 5.22017166 26.88522339 5.23532104 C30.02892511 5.26703803 33.17264198 5.29173361 36.31640625 5.31640625 C38.48974512 5.33696698 40.66307991 5.35796321 42.83641052 5.37937927 C48.56896674 5.43469095 54.30155958 5.48405997 60.03417969 5.53222656 C65.87893958 5.58237535 71.723646 5.6380959 77.56835938 5.69335938 C89.04552728 5.80105213 100.52274153 5.90247225 112 6 C112.495 8.475 112.495 8.475 113 11 C111.35 12.32 109.7 13.64 108 15 C109.875 10.25 109.875 10.25 111 8 C109.2292662 8.01332367 109.2292662 8.01332367 107.42276001 8.0269165 C96.2710912 8.10817605 85.11948285 8.16804873 73.96758461 8.20724869 C68.23493691 8.22807964 62.50252916 8.25631532 56.77001953 8.30175781 C51.23273755 8.34537556 45.69568568 8.36917087 40.15824509 8.37950897 C38.05082963 8.38687177 35.94342606 8.40124938 33.83610916 8.42292023 C30.87305212 8.45216578 27.91093318 8.45594717 24.94775391 8.45410156 C24.08603577 8.46848267 23.22431763 8.48286377 22.33648682 8.49768066 C14.17142278 8.4430287 6.70230007 5.69161005 0 1 C0 0.67 0 0.34 0 0 Z " fill="#BBA9C9" transform="translate(205,120)"/>
<path d="M0 0 C25.08 0 50.16 0 76 0 C75.67 23.1 75.34 46.2 75 70 C74.67 70 74.34 70 74 70 C72.64748113 63.00970886 72.97326034 56.06486956 73.12109375 48.97265625 C73.14175903 47.78055542 73.16242432 46.58845459 73.18371582 45.36022949 C73.26219418 40.92754049 73.35042165 36.4950284 73.4375 32.0625 C73.623125 22.141875 73.80875 12.22125 74 2 C49.58 2 25.16 2 0 2 C0 1.34 0 0.68 0 0 Z " fill="#5C4A93" transform="translate(170,55)"/>
<path d="M0 0 C1.37562854 1.28965176 2.70766393 2.62689293 4 4 C4 4.66 4 5.32 4 6 C7.33537489 4.88820837 8.63707344 3.52588702 11 1 C10.74438677 3.3431213 10.40729228 5.67843403 10 8 C9.01 8.495 9.01 8.495 8 9 C7.67 51.24 7.34 93.48 7 137 C6.67 137 6.34 137 6 137 C5.98969254 135.93988708 5.97938507 134.87977417 5.96876526 133.78753662 C5.86943065 123.61514161 5.76660126 113.44278663 5.66066074 103.27045822 C5.60634783 98.04539196 5.55311429 92.82032015 5.50268555 87.59521484 C5.38645134 75.61914129 5.2488461 63.64363746 5.07794189 51.66821289 C5.02507205 47.94283622 4.97983908 44.21749803 4.94158936 40.49194336 C4.89702181 36.24038419 4.83326789 31.98955254 4.75401115 27.7385025 C4.72823957 26.19363302 4.70906223 24.64863707 4.69702339 23.10359955 C4.67942289 20.99570267 4.63759398 18.88961953 4.58959961 16.78222656 C4.56354897 15.02292816 4.56354897 15.02292816 4.53697205 13.22808838 C3.89111585 9.34542655 2.2234243 7.20079639 0 4 C0 2.68 0 1.36 0 0 Z " fill="#7D63A9" transform="translate(239,225)"/>
<path d="M0 0 C5.61 0.33 11.22 0.66 17 1 C17 8.92 17 16.84 17 25 C14.31049676 22.31049676 12.89265705 20.22538377 11 17 C9.09634809 14.22765845 7.17064665 11.47385432 5.22851562 8.72851562 C3.22447206 5.86798599 1.56959451 3.13918902 0 0 Z " fill="#0699D6" transform="translate(80,126)"/>
<path d="M0 0 C19.8 0 39.6 0 60 0 C60 0.99 60 1.98 60 3 C40.2 3 20.4 3 0 3 C0 2.01 0 1.02 0 0 Z " fill="#822374" transform="translate(323,127)"/>
<path d="M0 0 C0 18.15 0 36.3 0 55 C0.66 55 1.32 55 2 55 C2 55.66 2 56.32 2 57 C1.34 57 0.68 57 0 57 C0 57.99 0 58.98 0 60 C-0.99 60 -1.98 60 -3 60 C-3 40.53 -3 21.06 -3 1 C-1 0 -1 0 0 0 Z " fill="#834293" transform="translate(319,199)"/>
<path d="M0 0 C4.08279501 -0.17421117 8.16463681 -0.28082588 12.25 -0.375 C13.40886719 -0.42527344 14.56773438 -0.47554687 15.76171875 -0.52734375 C24.16529605 -0.67307052 24.16529605 -0.67307052 26.68945312 1.36230469 C27.796875 3.0234375 27.796875 3.0234375 29 6 C28.67 6.66 28.34 7.32 28 8 C26.68 7.67 25.36 7.34 24 7 C23.67 5.35 23.34 3.7 23 2 C15.74 2 8.48 2 1 2 C1.10957451 10.6778787 1.22209638 19.35570549 1.33933926 28.03348351 C1.39371452 32.06608499 1.4469635 36.09869375 1.49731445 40.13134766 C1.73923656 59.435559 2.11471449 78.71215375 3 98 C2.34 98 1.68 98 1 98 C-0.08429579 77.80906777 -0.12384339 57.65571639 -0.06866455 37.44335938 C-0.05823816 33.20508337 -0.05382657 28.9668009 -0.04882812 24.72851562 C-0.03826089 16.48566003 -0.0213078 8.24283482 0 0 Z " fill="#256FAB" transform="translate(98,55)"/>
<path d="M0 0 C7.19146396 6.75561766 13.51798011 15.05154936 18.5 23.5625 C20.03507588 26.05699831 21.8315858 28.17082945 23.73828125 30.38671875 C25.06374267 32.08150379 26.08962439 33.80319572 27.125 35.6875 C28.64523575 38.37324983 29.82849204 39.93706744 32 42 C32 42.66 32 43.32 32 44 C32.66 44 33.32 44 34 44 C34.25394531 44.53109375 34.50789063 45.0621875 34.76953125 45.609375 C36.59750746 49.36117635 38.44864311 52.68323605 41 56 C41 56.66 41 57.32 41 58 C41.66 58 42.32 58 43 58 C44.18359375 59.6796875 44.18359375 59.6796875 45.4375 61.875 C47.17330794 64.91130355 47.98654002 65.99102668 51 68 C51.74906687 69.69354249 52.49285829 71.39045693 53.171875 73.11328125 C54.44012021 76.0027267 56.18082744 78.42806638 58 81 C57.67 81.66 57.34 82.32 57 83 C53.14726148 78.03199507 49.58599451 72.93133132 46.125 67.6875 C43.23120612 63.30629714 40.30608317 58.97624062 37.1875 54.75 C33.48227223 49.72685584 29.95330077 44.5939084 26.4375 39.4375 C25.8688623 38.60355713 25.30022461 37.76961426 24.71435547 36.91040039 C23.62107995 35.30681279 22.52781762 33.7032162 21.43457031 32.09960938 C16.95809566 25.54792762 12.35718333 19.08500917 7.75 12.625 C7.11251831 11.73107544 7.11251831 11.73107544 6.4621582 10.8190918 C4.74554257 8.41774143 3.02602872 6.03315833 1.203125 3.7109375 C0 2 0 2 0 0 Z " fill="#C0BBDA" transform="translate(173,262)"/>
<path d="M0 0 C0.66 0 1.32 0 2 0 C0.1262188 4.03583643 -2.26198359 7.73940536 -4.625 11.5 C-5.29378174 12.56686035 -5.29378174 12.56686035 -5.97607422 13.65527344 C-9.25102997 18.85825561 -12.60333401 24.00299627 -16.05078125 29.09375 C-17.45276939 31.18408903 -18.82160922 33.28086106 -20.16796875 35.40625 C-21.22951172 37.06140625 -21.22951172 37.06140625 -22.3125 38.75 C-23.26576172 40.25820313 -23.26576172 40.25820313 -24.23828125 41.796875 C-24.81964844 42.52390625 -25.40101563 43.2509375 -26 44 C-26.99 44 -27.98 44 -29 44 C-29.99 44.66 -30.98 45.32 -32 46 C-25.59545617 32.46883142 -15.09550256 19.65792283 -5.640625 8.12109375 C-3.81887213 6.00709785 -3.81887213 6.00709785 -3 3 C-2.34 3 -1.68 3 -1 3 C-0.67 2.01 -0.34 1.02 0 0 Z " fill="#D2D2D2" transform="translate(337,257)"/>
<path d="M0 0 C0.33 0 0.66 0 1 0 C1.33 28.38 1.66 56.76 2 86 C3.32 86 4.64 86 6 86 C5.25 88.4375 5.25 88.4375 4 91 C1.921875 91.66015625 1.921875 91.66015625 0 92 C-1.41873842 90.12653773 -2.83501625 88.25129507 -4.25 86.375 C-5.03890625 85.33085937 -5.8278125 84.28671875 -6.640625 83.2109375 C-8.86003581 80.19048106 -10.94794516 77.13456083 -13 74 C-12.505 73.01 -12.505 73.01 -12 72 C-10.66094733 73.7873962 -9.32890934 75.58004953 -8 77.375 C-7.2575 78.37273437 -6.515 79.37046875 -5.75 80.3984375 C-4 83 -4 83 -4 85 C-3.01 85 -2.02 85 -1 85 C-0.67 56.95 -0.34 28.9 0 0 Z " fill="#9B8ABF" transform="translate(244,273)"/>
<path d="M0 0 C0.66 0.33 1.32 0.66 2 1 C-1.52001648 6.05856673 -5.06468271 11.09765799 -8.66259766 16.10107422 C-12.87565858 21.96321529 -16.94872033 27.89187441 -20.92578125 33.91796875 C-25.24933614 40.34223393 -29.81868702 46.59678275 -34.35327148 52.87304688 C-36.23917594 55.49416932 -38.05188137 58.08839048 -39.6875 60.875 C-41 63 -41 63 -43 64 C-41.49935102 55.7464306 -34.65650832 48.30945527 -29.48046875 41.97265625 C-28.04057203 40.05406036 -26.99783997 38.17577788 -26 36 C-25.34 36 -24.68 36 -24 36 C-23.87625 35.4225 -23.7525 34.845 -23.625 34.25 C-22.99351176 31.97664233 -22.11141809 30.0746471 -21 28 C-20.34 28 -19.68 28 -19 28 C-19 27.01 -19 26.02 -19 25 C-17.35570171 23.31126121 -15.68615782 21.64694485 -14 20 C-12.95355934 18.36209288 -11.9601817 16.68991979 -11 15 C-7.6332787 9.70943795 -4.12175646 4.72789711 0 0 Z " fill="#C9B0D2" transform="translate(318,259)"/>
<path d="M0 0 C1.32 0 2.64 0 4 0 C4.25394531 0.87140625 4.50789062 1.7428125 4.76953125 2.640625 C6.04086174 6.11155904 7.59688856 8.71060419 9.6875 11.75 C10.39519531 12.78253906 11.10289062 13.81507812 11.83203125 14.87890625 C12.54746094 15.90886719 13.26289063 16.93882813 14 18 C14.66386719 18.97839844 15.32773438 19.95679687 16.01171875 20.96484375 C18.87102267 25.6649452 18.87102267 25.6649452 23 29 C24.10181237 30.75601346 25.03718558 32.57088501 26 34.40625 C26.91759769 36.17544341 26.91759769 36.17544341 29 37 C29.25136719 37.680625 29.50273437 38.36125 29.76171875 39.0625 C31.50022605 43.18665612 34.10893231 46.45626677 36.8125 50 C37.33392578 50.69867188 37.85535156 51.39734375 38.39257812 52.1171875 C41.36856988 56.05545375 44.47220479 59.55454113 48 63 C48.33 63.66 48.66 64.32 49 65 C40.03460759 61.34743272 34.20023555 50.99672218 29 43.25 C23.96228687 35.80926067 18.79846584 28.47772601 13.49023438 21.22753906 C10.34029307 16.91207893 7.32052283 12.53420258 4.39233398 8.06494141 C3.42246973 6.62655601 2.39420369 5.22657915 1.32446289 3.86083984 C0 2 0 2 0 0 Z " fill="#B1ABCD" transform="translate(156,55)"/>
<path d="M0 0 C4.85976049 4.41796408 8.3415097 9.57256933 12 15 C12.57621094 15.83917969 13.15242187 16.67835938 13.74609375 17.54296875 C17.86686912 23.60060737 17.86686912 23.60060737 19 27 C19.66 27 20.32 27 21 27 C21.40992188 27.77085937 21.81984375 28.54171875 22.2421875 29.3359375 C22.78101563 30.33882812 23.31984375 31.34171875 23.875 32.375 C24.67550781 33.87160156 24.67550781 33.87160156 25.4921875 35.3984375 C26.8820138 38.05348395 26.8820138 38.05348395 29 40 C29 40.99 29 41.98 29 43 C29.99 43 30.98 43 32 43 C32.495 44.11375 32.99 45.2275 33.5 46.375 C35.78530931 51.01987054 38.90709 54.7170477 42.29296875 58.60546875 C44.10583455 61.14845899 44.63451041 62.9287964 45 66 C41.06243446 62.41869039 38.22864643 58.24524502 35.25 53.875 C34.74339844 53.14667969 34.23679688 52.41835937 33.71484375 51.66796875 C33.23660156 50.97058594 32.75835937 50.27320313 32.265625 49.5546875 C31.83024414 48.92030762 31.39486328 48.28592773 30.94628906 47.63232422 C30 46 30 46 30 44 C29.34 44 28.68 44 28 44 C27.505 43.071875 27.01 42.14375 26.5 41.1875 C24.08961076 36.97141848 21.23391351 33.14079021 18.3515625 29.23828125 C15.10998739 24.81502755 12.03601528 20.27542223 8.94506836 15.74633789 C8.50557861 15.10301514 8.06608887 14.45969238 7.61328125 13.796875 C7.1848291 13.16716797 6.75637695 12.53746094 6.31494141 11.88867188 C5.41683249 10.59870333 4.49598663 9.32434596 3.55615234 8.06445312 C0 3.29623197 0 3.29623197 0 0 Z " fill="#B0C1DB" transform="translate(128,196)"/>
<path d="M0 0 C0.99 0 1.98 0 3 0 C3.598125 1.093125 4.19625 2.18625 4.8125 3.3125 C6.31396658 5.95064023 7.80413044 7.89960303 10 10 C11.6774777 12.5497661 12.95565282 14.87804525 14 17.75 C14.33 18.4925 14.66 19.235 15 20 C15.99 20.33 16.98 20.66 18 21 C18.66666667 22.66666667 19.33333333 24.33333333 20 26 C20.99 26.33 21.98 26.66 23 27 C23.67795528 28.99620166 24.34256345 30.99694692 25 33 C26.38583245 35.03059233 27.84976442 37.00941981 29.375 38.9375 C32.65337745 43.1736057 35.44854675 47.30532602 38 52 C38.66 52.66 39.32 53.32 40 54 C40 54.99 40 55.98 40 57 C39.34 57 38.68 57 38 57 C37.505 56.071875 37.01 55.14375 36.5 54.1875 C34.08729809 49.96737331 31.22811 46.13336355 28.34375 42.2265625 C25.14666357 37.82524018 22.08064879 33.33876596 19.00878906 28.84960938 C15.89239175 24.29571128 12.74235976 19.76770976 9.5625 15.2578125 C7.39246797 12.12211622 5.32058185 8.9244139 3.26171875 5.71484375 C2.09650971 3.85850478 2.09650971 3.85850478 0 3 C0 2.01 0 1.02 0 0 Z " fill="#A9C5E1" transform="translate(29,55)"/>
<path d="M0 0 C0.99 0.33 1.98 0.66 3 1 C3 1.66 3 2.32 3 3 C3.66 3 4.32 3 5 3 C5.56074219 4.02480469 6.12148437 5.04960937 6.69921875 6.10546875 C8.78609197 9.75543294 11.20220744 13.01161035 13.8125 16.3125 C25.35966295 31.07898885 25.35966295 31.07898885 27 36 C26.34 36 25.68 36 25 36 C24.67 36.66 24.34 37.32 24 38 C18.00946973 29.11502916 12.05790862 20.21083515 6.375 11.125 C5.9620166 10.46628906 5.5490332 9.80757813 5.12353516 9.12890625 C3.27128963 6.14788783 1.48694514 3.18174282 0 0 Z " fill="#D3D3D3" transform="translate(151,257)"/>
<path d="M0 0 C3.3 0 6.6 0 10 0 C11.14077657 3.42232972 11.09815117 6.08673217 11.0625 9.6875 C11.05347656 10.86699219 11.04445312 12.04648438 11.03515625 13.26171875 C11.02355469 14.16535156 11.01195312 15.06898437 11 16 C6.88233503 14.68823961 5.03867918 13.30236205 2.6875 9.6875 C2.17574219 8.92824219 1.66398438 8.16898438 1.13671875 7.38671875 C0 5 0 5 0 0 Z " fill="#3F498C" transform="translate(160,55)"/>
<path d="M0 0 C0.495 0.99 0.495 0.99 1 2 C0.47599609 2.67095703 0.47599609 2.67095703 -0.05859375 3.35546875 C-3.00824903 7.17602855 -3.00824903 7.17602855 -4.5 11.6875 C-5 14 -5 14 -7.2734375 15.8046875 C-10.15062251 18.12127486 -11.99732659 20.42955387 -14.125 23.4375 C-14.78757812 24.36433594 -15.45015625 25.29117188 -16.1328125 26.24609375 C-17.32266234 28.0009978 -18.47014563 29.78593267 -19.55859375 31.60546875 C-20.89855736 33.83147875 -22.33858666 35.83076597 -23.9375 37.875 C-25.85168531 40.38324282 -27.5544888 42.85418268 -29.0625 45.625 C-31.09769813 49.17018383 -33.31205496 51.93872926 -36 55 C-36 51.47961808 -35.39751661 50.90781758 -33.25 48.25 C-30.90514141 45.24377104 -28.94938727 42.23884405 -27.109375 38.890625 C-25.25317681 35.72724499 -23.09862838 32.77801487 -20.9765625 29.7890625 C-18.85381502 26.79372316 -16.76955011 23.77375475 -14.6875 20.75 C-9.8680267 13.77838258 -4.94363084 6.88392855 0 0 Z " fill="#CAB8D6" transform="translate(287,171)"/>
<path d="M0 0 C0.33 0.66 0.66 1.32 1 2 C0.30132812 2.96421875 -0.39734375 3.9284375 -1.1171875 4.921875 C-2.03660959 6.19780769 -2.95587205 7.47385541 -3.875 8.75 C-4.33519531 9.38421875 -4.79539062 10.0184375 -5.26953125 10.671875 C-7.43662041 13.68695557 -9.49857822 16.58297113 -11 20 C-11.66 20 -12.32 20 -13 20 C-13.23589844 20.68707031 -13.47179687 21.37414062 -13.71484375 22.08203125 C-15.2614332 25.59358844 -17.3382584 28.58480595 -19.5625 31.6875 C-22.4980153 35.70970455 -22.4980153 35.70970455 -25 40 C-27.0625 40.625 -27.0625 40.625 -29 41 C-27.34643078 37.41726669 -25.32019297 34.19026533 -23 31 C-22.34 31 -21.68 31 -21 31 C-20.90589844 30.44441406 -20.81179688 29.88882813 -20.71484375 29.31640625 C-19.81576095 26.40298493 -18.35054557 24.40210335 -16.5625 21.9375 C-15.94503906 21.08027344 -15.32757813 20.22304687 -14.69140625 19.33984375 C-14.13324219 18.56769531 -13.57507813 17.79554688 -13 17 C-12.34 16.01 -11.68 15.02 -11 14 C-10.34 14 -9.68 14 -9 14 C-8.67 12.68 -8.34 11.36 -8 10 C-7.34 10 -6.68 10 -6 10 C-5.896875 9.443125 -5.79375 8.88625 -5.6875 8.3125 C-4.85988599 5.52870742 -3.62262248 3.40148127 -2 1 C-1.34 0.67 -0.68 0.34 0 0 Z " fill="#C6A3BF" transform="translate(417,117)"/>
<path d="M0 0 C0.66 0 1.32 0 2 0 C0.63672434 3.83635361 -1.11452443 6.7558142 -3.5625 10 C-6.6842326 14.20014931 -9.72310605 18.43855057 -12.6875 22.75 C-15.75132009 27.19730978 -18.84181628 31.61929354 -22 36 C-22.495 34.515 -22.495 34.515 -23 33 C-21.25 30.625 -21.25 30.625 -19 28 C-17.98118198 26.34476962 -16.983443 24.67648968 -16 23 C-14.86310214 21.14034108 -13.71701798 19.28627156 -12.5625 17.4375 C-11.98628906 16.50808594 -11.41007812 15.57867187 -10.81640625 14.62109375 C-9.06788631 12.09796067 -7.17617051 10.14952353 -5 8 C-3.76004579 6.16010072 -3.76004579 6.16010072 -2.8125 4.3125 C-1 1 -1 1 0 0 Z " fill="#C8ADD1" transform="translate(273,323)"/>
<path d="M0 0 C4.34130593 3.81508703 7.12306677 8.16239483 10.15234375 13.0625 C12.93752842 17.49053144 15.96197998 21.74307833 19 26 C18.67 26.66 18.34 27.32 18 28 C17.01 27.34 16.02 26.68 15 26 C14.34 26.99 13.68 27.98 13 29 C12.86722656 28.24074219 12.73445312 27.48148438 12.59765625 26.69921875 C12.33275391 25.20841797 12.33275391 25.20841797 12.0625 23.6875 C11.88847656 22.70136719 11.71445313 21.71523437 11.53515625 20.69921875 C11.04253153 17.91810787 11.04253153 17.91810787 10 15 C9.38640625 14.69835937 8.7728125 14.39671875 8.140625 14.0859375 C5.42922328 12.71044539 4.41142102 11.15069559 2.75 8.625 C2.22921875 7.85414062 1.7084375 7.08328125 1.171875 6.2890625 C0 4 0 4 0 0 Z " fill="#9BABCB" transform="translate(157,106)"/>
<path d="M0 0 C1.24546405 2.49092811 0.7767578 3.41080733 0 6 C-0.66 6 -1.32 6 -2 6 C-2.020625 6.680625 -2.04125 7.36125 -2.0625 8.0625 C-3.24146399 11.75658717 -5.09352726 13.21444858 -7.87890625 15.8203125 C-12.07108459 20.12829687 -15.48041669 25.13962305 -19 30 C-19 26.0410805 -17.56367684 24.75042179 -15.1875 21.625 C-12.57338248 18.16807957 -10.22038788 14.71799325 -8 11 C-6.62301856 9.04905688 -5.22665018 7.11167156 -3.8125 5.1875 C-3.09707031 4.21167969 -2.38164062 3.23585937 -1.64453125 2.23046875 C-1.10183594 1.49441406 -0.55914062 0.75835937 0 0 Z " fill="#AF96BE" transform="translate(312,135)"/>
<path d="M0 0 C3.90620016 1.25556434 4.94456392 3.53983717 6.84912109 6.99633789 C8.833974 10.45193565 11.15142361 13.676618 13.4375 16.9375 C16.31342872 21.04995841 19.16519134 25.17754545 21.91015625 29.37890625 C22.33562744 30.02545166 22.76109863 30.67199707 23.19946289 31.33813477 C23.46364014 31.88655029 23.72781738 32.43496582 24 33 C23.67 33.66 23.34 34.32 23 35 C17.27562959 27.09549703 11.6786336 19.12962505 6.31298828 10.97631836 C4.67562363 8.4919129 3.03759101 6.04853106 1.21484375 3.6953125 C0 2 0 2 0 0 Z " fill="#A7D7EF" transform="translate(73,118)"/>
<path d="M0 0 C0 3.37760908 -0.44024573 4.00305655 -2.3125 6.6875 C-2.85261719 7.46867187 -3.39273437 8.24984375 -3.94921875 9.0546875 C-4.62597656 10.02664062 -5.30273438 10.99859375 -6 12 C-6.90386547 13.33490841 -7.80608853 14.67092976 -8.70703125 16.0078125 C-9.67938565 17.4429129 -10.65204388 18.87780749 -11.625 20.3125 C-12.09204346 21.00625732 -12.55908691 21.70001465 -13.0402832 22.41479492 C-15.45003503 25.94227418 -17.82491084 29.1006815 -21 32 C-20.67 30.35 -20.34 28.7 -20 27 C-19.34 27 -18.68 27 -18 27 C-17.9175 26.443125 -17.835 25.88625 -17.75 25.3125 C-16.7723543 22.29809241 -15.00690996 20.43261814 -13 18 C-12.29114106 16.68861096 -11.60543548 15.36222983 -11 14 C-10.34 14 -9.68 14 -9 14 C-8.7215625 12.7625 -8.7215625 12.7625 -8.4375 11.5 C-6.51131879 6.81016748 -3.45957895 3.64458317 0 0 Z " fill="#BA9AB4" transform="translate(439,85)"/>
<path d="M0 0 C4.08279501 -0.17421117 8.16463681 -0.28082588 12.25 -0.375 C13.40886719 -0.42527344 14.56773438 -0.47554687 15.76171875 -0.52734375 C24.16529605 -0.67307052 24.16529605 -0.67307052 26.68945312 1.36230469 C27.796875 3.0234375 27.796875 3.0234375 29 6 C28.67 6.66 28.34 7.32 28 8 C26.68 7.67 25.36 7.34 24 7 C23.67 5.35 23.34 3.7 23 2 C15.41 2 7.82 2 0 2 C0 1.34 0 0.68 0 0 Z " fill="#4A6EA4" transform="translate(98,55)"/>
<path d="M0 0 C4.07704071 3.80621395 7.13884737 7.84169568 10.1875 12.5 C10.62513672 13.15097656 11.06277344 13.80195313 11.51367188 14.47265625 C13.76874335 17.88108489 15.66023861 21.10795575 17 25 C16.34 25 15.68 25 15 25 C14.67 24.01 14.34 23.02 14 22 C13.34 21.67 12.68 21.34 12 21 C12 20.01 12 19.02 12 18 C11.34 18 10.68 18 10 18 C8.78125 16.50390625 8.78125 16.50390625 7.5 14.5625 C5.7134637 11.77468153 5.7134637 11.77468153 3 10 C2.1484375 7.71484375 2.1484375 7.71484375 1.375 4.9375 C1.11460937 4.01839844 0.85421875 3.09929687 0.5859375 2.15234375 C0.39257812 1.44207031 0.19921875 0.73179687 0 0 Z " fill="#A9A7CF" transform="translate(210,183)"/>
<path d="M0 0 C5.0084636 3.577474 7.88417809 7.83949102 11.25 12.8671875 C13.81669236 16.60493326 16.33381154 19.24878112 20 22 C21.3125 24.25 21.3125 24.25 22 26 C12.63982613 22.18659583 5.36582347 10.14859545 0 2 C0 1.34 0 0.68 0 0 Z " fill="#B4ADCF" transform="translate(183,94)"/>
<path d="M0 0 C0.33 0.66 0.66 1.32 1 2 C-4.80752377 10.81839163 -10.69392789 19.52731652 -17 28 C-17.33 27.34 -17.66 26.68 -18 26 C-17.43410156 25.25234375 -16.86820312 24.5046875 -16.28515625 23.734375 C-15.55167969 22.74953125 -14.81820313 21.7646875 -14.0625 20.75 C-13.33160156 19.77546875 -12.60070312 18.8009375 -11.84765625 17.796875 C-10.2098922 15.31772265 -9.57761561 13.82529373 -9 11 C-7.68945377 9.64426252 -6.35251497 8.31387169 -5 7 C-3.63988391 5.01811655 -2.30208796 3.02048131 -1 1 C-0.67 0.67 -0.34 0.34 0 0 Z " fill="#D6BDD3" transform="translate(389,157)"/>
<path d="M0 0 C0.99 0 1.98 0 3 0 C3.598125 1.093125 4.19625 2.18625 4.8125 3.3125 C6.31396658 5.95064023 7.80413044 7.89960303 10 10 C12.28447532 13.52189945 14.29475481 17.16319831 16 21 C15.67 21.66 15.34 22.32 15 23 C10.98018811 17.30328434 7.02664652 11.58400512 3.26171875 5.71484375 C2.09650971 3.85850478 2.09650971 3.85850478 0 3 C0 2.01 0 1.02 0 0 Z " fill="#AAC6E2" transform="translate(29,55)"/>
<path d="M0 0 C4.17781634 3.87671246 7.22712043 8.03587533 10.3125 12.8125 C10.76689453 13.50537109 11.22128906 14.19824219 11.68945312 14.91210938 C12.79831476 16.6045824 13.89991438 18.30180958 15 20 C14.67 20.66 14.34 21.32 14 22 C11.5 19.6875 11.5 19.6875 9 17 C9 16.01 9 15.02 9 14 C8.01 14 7.02 14 6 14 C5.7525 13.0925 5.505 12.185 5.25 11.25 C4.23056819 7.94288678 4.23056819 7.94288678 1.875 5.875 C1.25625 5.25625 0.6375 4.6375 0 4 C0 2.68 0 1.36 0 0 Z " fill="#A49FCB" transform="translate(188,151)"/>
<path d="M0 0 C0.66 0 1.32 0 2 0 C0.71524695 2.63044301 -0.65174195 5.1657438 -2.1640625 7.671875 C-2.56367188 8.33574219 -2.96328125 8.99960937 -3.375 9.68359375 C-3.7875 10.36550781 -4.2 11.04742187 -4.625 11.75 C-5.04523438 12.44738281 -5.46546875 13.14476562 -5.8984375 13.86328125 C-6.93095746 15.57632572 -7.96529882 17.28827213 -9 19 C-9.99 18.67 -10.98 18.34 -12 18 C-10.24585235 14.21205797 -7.90609326 11.17133151 -5.33984375 7.90234375 C-3.81914723 5.9370042 -3.81914723 5.9370042 -3 3 C-2.34 3 -1.68 3 -1 3 C-0.67 2.01 -0.34 1.02 0 0 Z " fill="#DAD9D9" transform="translate(337,257)"/>
<path d="M0 0 C0.99 0.33 1.98 0.66 3 1 C3 1.66 3 2.32 3 3 C3.66 3 4.32 3 5 3 C5.556875 4.010625 6.11375 5.02125 6.6875 6.0625 C8.87752727 9.90878446 11.38052885 13.43460872 14 17 C13.34 17 12.68 17 12 17 C11.67 17.66 11.34 18.32 11 19 C10.484375 18.05125 9.96875 17.1025 9.4375 16.125 C7.05222209 11.91416643 4.23882162 8.04401369 1.390625 4.13671875 C0 2 0 2 0 0 Z " fill="#DAD9D9" transform="translate(151,257)"/>
<path d="M0 0 C1.37562854 1.28965176 2.70766393 2.62689293 4 4 C4 4.66 4 5.32 4 6 C7.33537489 4.88820837 8.63707344 3.52588702 11 1 C10.67 3.31 10.34 5.62 10 8 C7.69 8.33 5.38 8.66 3 9 C0.70620251 5.55930376 0 4.27709699 0 0 Z " fill="#AEA3CD" transform="translate(239,225)"/>
<path d="M0 0 C4.85110358 4.41009417 8.348107 9.58004353 12 15 C11.67 15.66 11.34 16.32 11 17 C6.87202847 13.11485033 2.85255988 8.93071347 0 4 C0 2.68 0 1.36 0 0 Z " fill="#A4A0CC" transform="translate(176,134)"/>
<path d="M0 0 C3.70605319 3.49835844 6.52199492 7.00850064 9.3125 11.3125 C10.00988281 12.38113281 10.70726562 13.44976562 11.42578125 14.55078125 C11.94527344 15.35902344 12.46476563 16.16726562 13 17 C12.67 17.66 12.34 18.32 12 19 C7.7365823 14.50859205 4.76710513 11.0376092 3 5 C2.01 4.67 1.02 4.34 0 4 C0 2.68 0 1.36 0 0 Z " fill="#ACB8D3" transform="translate(139,80)"/>
<path d="M0 0 C0.66 0.33 1.32 0.66 2 1 C1.50628906 1.69867188 1.01257813 2.39734375 0.50390625 3.1171875 C-0.13675781 4.02726563 -0.77742188 4.93734375 -1.4375 5.875 C-2.07558594 6.77992188 -2.71367187 7.68484375 -3.37109375 8.6171875 C-4.99518138 10.87738581 -4.99518138 10.87738581 -6 13 C-6.66 13 -7.32 13 -8 13 C-8.28875 13.78375 -8.5775 14.5675 -8.875 15.375 C-10 18 -10 18 -12 20 C-11.59611619 14.66666257 -8.57364729 11.27897805 -5.4375 7.1875 C-4.91736328 6.49462891 -4.39722656 5.80175781 -3.86132812 5.08789062 C-2.58200846 3.38604337 -1.29203986 1.69221036 0 0 Z " fill="#D0AFCE" transform="translate(348,216)"/>
<path d="M0 0 C0.33 0.99 0.66 1.98 1 3 C-0.51171875 5.84765625 -0.51171875 5.84765625 -2.6875 9.0625 C-3.39261719 10.12597656 -4.09773438 11.18945312 -4.82421875 12.28515625 C-6.84832046 14.81074097 -8.01353789 15.91462664 -11 17 C-10.505 15.515 -10.505 15.515 -10 14 C-9.34 14 -8.68 14 -8 14 C-7.87625 13.4225 -7.7525 12.845 -7.625 12.25 C-6.99351176 9.97664233 -6.11141809 8.0746471 -5 6 C-4.34 6 -3.68 6 -3 6 C-3 5.01 -3 4.02 -3 3 C-1.5 1.3125 -1.5 1.3125 0 0 Z " fill="#C3A5CD" transform="translate(302,281)"/>
<path d="M0 0 C2.31 0.33 4.62 0.66 7 1 C7 1.66 7 2.32 7 3 C8.5778125 3.12375 8.5778125 3.12375 10.1875 3.25 C14.27047209 4.05320762 16.0122727 5.19334709 19 8 C12.10819746 7.13852468 5.7458046 4.95024066 0 1 C0 0.67 0 0.34 0 0 Z " fill="#BAB4D2" transform="translate(205,120)"/>
<path d="M0 0 C4.85110358 4.41009417 8.348107 9.58004353 12 15 C11.67 15.66 11.34 16.32 11 17 C5.97888758 12.26580829 0.65449308 7.19942385 0 0 Z " fill="#A8B6D2" transform="translate(127,63)"/>
<path d="M0 0 C0.33 0.66 0.66 1.32 1 2 C-0.41097867 4.45669355 -1.86043594 6.77914624 -3.4375 9.125 C-4.0881543 10.11306641 -4.0881543 10.11306641 -4.75195312 11.12109375 C-5.82749114 12.75212943 -6.91284486 14.37668453 -8 16 C-8.66 15.67 -9.32 15.34 -10 15 C-8.19984592 9.31530289 -7.02466152 6.47861182 -2 3 C-1.34 2.01 -0.68 1.02 0 0 Z " fill="#BB9BB5" transform="translate(450,69)"/>
<path d="M0 0 C1.32 0 2.64 0 4 0 C4 0.99 4 1.98 4 3 C3.34 3 2.68 3 2 3 C1.773125 3.515625 1.54625 4.03125 1.3125 4.5625 C-0.4975553 7.92403127 -2.73996404 10.92911144 -5 14 C-5 10.46620115 -3.73793374 8.68901846 -1.95703125 5.71875 C-0.9155797 3.84838803 -0.33828768 2.11429802 0 0 Z " fill="#B38FAC" transform="translate(457,55)"/>
<path d="M0 0 C0.33 0.99 0.66 1.98 1 3 C0.04422943 4.36538653 -0.96352976 5.69481525 -2 7 C-2.71162443 8.64797236 -3.39031953 10.31165408 -4 12 C-4.66 11.34 -5.32 10.68 -6 10 C-6.99 10.495 -6.99 10.495 -8 11 C-6.63629701 8.00779732 -5.05091917 5.70973471 -2.875 3.25 C-2.33617187 2.63640625 -1.79734375 2.0228125 -1.2421875 1.390625 C-0.62730469 0.70226562 -0.62730469 0.70226562 0 0 Z " fill="#C0BFC0" transform="translate(290,327)"/>
<path d="M0 0 C0.33 0.66 0.66 1.32 1 2 C-1.01511972 7.28163799 -3.55993084 12.38216587 -8 16 C-7.55386566 11.09252227 -6.52899991 9.32141168 -3 6 C-1.93988057 4.03120677 -0.92529151 2.03564133 0 0 Z " fill="#BE93B8" transform="translate(371,181)"/>
<path d="M0 0 C0.33 0.66 0.66 1.32 1 2 C0.65066406 2.44730469 0.30132812 2.89460937 -0.05859375 3.35546875 C-3.02928477 7.23673889 -3.02928477 7.23673889 -4.5625 11.8125 C-4.706875 12.534375 -4.85125 13.25625 -5 14 C-7.0625 15.3125 -7.0625 15.3125 -9 16 C-8.47515308 11.44299575 -6.68492697 8.807126 -3.9375 5.1875 C-3.20402344 4.21167969 -2.47054688 3.23585937 -1.71484375 2.23046875 C-1.14894531 1.49441406 -0.58304687 0.75835937 0 0 Z " fill="#B9A3C6" transform="translate(287,171)"/>
<path d="M0 0 C0.66796875 1.70703125 0.66796875 1.70703125 1 4 C-0.07421875 6.32421875 -0.07421875 6.32421875 -1.6875 8.6875 C-2.20699219 9.47511719 -2.72648437 10.26273438 -3.26171875 11.07421875 C-5.17568733 13.19463788 -6.21289282 13.64174439 -9 14 C-7.34643078 10.41726669 -5.32019297 7.19026533 -3 4 C-2.34 4 -1.68 4 -1 4 C-0.67 2.68 -0.34 1.36 0 0 Z " fill="#BD93B5" transform="translate(397,144)"/>
<path d="M0 0 C1.32 0 2.64 0 4 0 C4.2475 0.86625 4.495 1.7325 4.75 2.625 C6.06778613 6.18302254 7.80186822 8.9226155 10 12 C9.67 12.66 9.34 13.32 9 14 C7.49412261 12.04594482 5.99521356 10.08718716 4.5 8.125 C4.07074219 7.56941406 3.64148438 7.01382813 3.19921875 6.44140625 C0 2.2265625 0 2.2265625 0 0 Z " fill="#A1A4C6" transform="translate(156,55)"/>
<path d="M0 0 C2.75 -0.375 2.75 -0.375 6 0 C8.375 3 8.375 3 10 6 C9.67 6.66 9.34 7.32 9 8 C7.68 7.67 6.36 7.34 5 7 C4.67 5.35 4.34 3.7 4 2 C2.68 2 1.36 2 0 2 C0 1.34 0 0.68 0 0 Z " fill="#7890BA" transform="translate(117,55)"/>
<path d="M0 0 C0 3.08401374 -0.34209098 4.03663956 -1.8125 6.625 C-2.14894531 7.23601562 -2.48539062 7.84703125 -2.83203125 8.4765625 C-4 10 -4 10 -7 11 C-7 11.99 -7 12.98 -7 14 C-7.66 13.67 -8.32 13.34 -9 13 C-6.38888348 8.16459904 -3.62542917 4.12896099 0 0 Z " fill="#8B5EA7" transform="translate(267,203)"/>
<path d="M0 0 C0.99 0.33 1.98 0.66 3 1 C3.66666667 2.66666667 4.33333333 4.33333333 5 6 C5.99 6.33 6.98 6.66 8 7 C8 8.32 8 9.64 8 11 C4.53347293 9.6090196 3.29549069 8.31672766 1.75 4.9375 C1.41484375 4.22464844 1.0796875 3.51179688 0.734375 2.77734375 C0 1 0 1 0 0 Z " fill="#8AB5D8" transform="translate(44,75)"/>
<path d="M0 0 C0.33 0.66 0.66 1.32 1 2 C-0.0945149 3.65226769 -1.2009517 5.29664298 -2.3125 6.9375 C-3.23482422 8.31228516 -3.23482422 8.31228516 -4.17578125 9.71484375 C-6 12 -6 12 -9 13 C-9 12.34 -9 11.68 -9 11 C-7.66666667 9.66666667 -6.33333333 8.33333333 -5 7 C-3.63988391 5.01811655 -2.30208796 3.02048131 -1 1 C-0.67 0.67 -0.34 0.34 0 0 Z " fill="#CCABC7" transform="translate(389,157)"/>
<path d="M0 0 C0.33 0.99 0.66 1.98 1 3 C-1.10889262 6.82724957 -2.79609368 9.49860488 -7 11 C-7 10.34 -7 9.68 -7 9 C-6.360625 8.38125 -5.72125 7.7625 -5.0625 7.125 C-2.91276767 4.91012427 -2.60194713 3.90941112 -2 1 C-1.34 0.67 -0.68 0.34 0 0 Z " fill="#BF8FBB" transform="translate(354,206)"/>
<path d="M0 0 C2.375 0.6875 2.375 0.6875 5 2 C6.3125 4.625 6.3125 4.625 7 7 C5.68 6.34 4.36 5.68 3 5 C2.34 5.99 1.68 6.98 1 8 C0.67 5.36 0.34 2.72 0 0 Z " fill="#7C88BA" transform="translate(169,127)"/>
<path d="M0 0 C4.67623652 1.50307602 5.85884357 4.8653531 8 9 C8.33 9.66 8.66 10.32 9 11 C4.55092795 9.51697598 2.25420608 5.91714499 0 2 C0 1.34 0 0.68 0 0 Z " fill="#9FC3E1" transform="translate(73,118)"/>
<path d="M0 0 C0.33 0.66 0.66 1.32 1 2 C0.21654285 3.17219543 -0.57702836 4.33763668 -1.375 5.5 C-1.81585938 6.1496875 -2.25671875 6.799375 -2.7109375 7.46875 C-3.13632812 7.9740625 -3.56171875 8.479375 -4 9 C-4.66 9 -5.32 9 -6 9 C-4.83857315 4.64464931 -3.92300495 2.35380297 0 0 Z " fill="#B897B1" transform="translate(417,117)"/>
<path d="M0 0 C3.39417765 3.12621626 5.6062718 5.56541027 7 10 C5.82174642 9.09827532 4.65768423 8.17798498 3.5 7.25 C2.8503125 6.73953125 2.200625 6.2290625 1.53125 5.703125 C0 4 0 4 0 0 Z " fill="#B9B5D7" transform="translate(188,151)"/>
<path d="M0 0 C1.24546405 2.49092811 0.7767578 3.41080733 0 6 C-0.99 6 -1.98 6 -3 6 C-3.66 7.32 -4.32 8.64 -5 10 C-5 6.60406522 -4.47834052 5.93380119 -2.5 3.3125 C-2.0359375 2.68988281 -1.571875 2.06726563 -1.09375 1.42578125 C-0.7328125 0.95527344 -0.371875 0.48476562 0 0 Z " fill="#BCA8C9" transform="translate(312,135)"/>
<path d="M0 0 C2.5 2.3125 2.5 2.3125 5 5 C5 5.99 5 6.98 5 8 C2.5 6.25 2.5 6.25 0 4 C0 2.68 0 1.36 0 0 Z " fill="#AEA9D1" transform="translate(176,134)"/>
<path d="M0 0 C5.57142857 5.14285714 5.57142857 5.14285714 6 9 C3 8 3 8 1.3125 5.0625 C0 2 0 2 0 0 Z " fill="#B1BCD6" transform="translate(166,119)"/>
<path d="M0 0 C0.66 0 1.32 0 2 0 C1.67 0.99 1.34 1.98 1 3 C0.34 2.67 -0.32 2.34 -1 2 C-0.67 1.34 -0.34 0.68 0 0 Z " fill="#DCDCDC" transform="translate(340,252)"/>
<path d="M0 0 C0.66 0 1.32 0 2 0 C2.33 0.99 2.66 1.98 3 3 C2.01 2.67 1.02 2.34 0 2 C0 1.34 0 0.68 0 0 Z " fill="#DCDCDC" transform="translate(148,252)"/>
<path d="" fill="#DEDDDC" transform="translate(0,0)"/>
<path d="" fill="#DEDEDD" transform="translate(0,0)"/>
<path d="" fill="#E0DFDE" transform="translate(0,0)"/>
</svg>
